<mxfile host="app.diagrams.net" modified="2024-05-24T06:45:29.239Z" agent="Mozilla/5.0 (Windows NT 10.0; Win64; x64) AppleWebKit/537.36 (KHTML, like Gecko) Chrome/125.0.0.0 Safari/537.36 Edg/125.0.0.0" etag="yT1dZ6Iw8zyoMF73p8q0" version="24.3.1" type="device">
  <diagram name="Page-1" id="emFyY7_59I-pz8yy_9hy">
    <mxGraphModel dx="2902" dy="1608" grid="1" gridSize="10" guides="1" tooltips="1" connect="1" arrows="1" fold="1" page="0" pageScale="1" pageWidth="1100" pageHeight="850" math="0" shadow="0">
      <root>
        <mxCell id="0" />
        <mxCell id="1" parent="0" />
        <mxCell id="9x1tPgVooMuBBy_g9e1C-26" style="edgeStyle=orthogonalEdgeStyle;rounded=0;orthogonalLoop=1;jettySize=auto;html=1;" edge="1" parent="1" source="9x1tPgVooMuBBy_g9e1C-1" target="9x1tPgVooMuBBy_g9e1C-17">
          <mxGeometry relative="1" as="geometry" />
        </mxCell>
        <mxCell id="9x1tPgVooMuBBy_g9e1C-36" style="edgeStyle=orthogonalEdgeStyle;rounded=0;orthogonalLoop=1;jettySize=auto;html=1;exitX=0.5;exitY=0;exitDx=0;exitDy=0;" edge="1" parent="1" source="9x1tPgVooMuBBy_g9e1C-1" target="9x1tPgVooMuBBy_g9e1C-3">
          <mxGeometry relative="1" as="geometry">
            <mxPoint x="-130" y="110" as="sourcePoint" />
          </mxGeometry>
        </mxCell>
        <mxCell id="9x1tPgVooMuBBy_g9e1C-1" value="" style="shape=image;verticalLabelPosition=bottom;labelBackgroundColor=default;verticalAlign=top;aspect=fixed;imageAspect=0;image=data:image/png,iVBORw0KGgoAAAANSUhEUgAAAGQAAABkCAYAAABw4pVUAAAAAXNSR0IArs4c6QAADshJREFUeAHtXAd4VUUWHhJaKAlFlpoYaiihhQRIaCEkIYQQAoYiIIpEgUVABANIUQkgYJAizQRCSwiCCIsNFAFRBKmCgDRZXRsquuvu2lZ2Z/0n78ybd9+97728JOpu5n3fZW4598yZ/79nzsyZCYzpn0ZAI6AR0AhoBDQCGgGNgEZAI6AR0AhoBDQCGgGNgEZAI6AR0AhoBDQCGgGNgEZAI6AR0AhoBDQCGgGNgEaguBHwZYw1ZYx1Y4zF6qNIGABDYAlMC/1rxBjLZox9xRjj+ihWDIBpFmMMGHv0m8YY+0mTUKwkmH3UwHiqO0ZWEhGV/avx5Psn89m5L/HlB87xNW9fEcf60zd4zpmv9FFIDNYe/QvPeO5NPuCPM3jlgOoqQcutSBlDZLTu0pOvOXKZbz7/pdORd/kf/Nnrt/RRBAzWnfqCt+kaq5KSZiSlOmPsGxASEh7Jc8584kQEkbPl4teajCKQQR9z3uXvefPwLkTKTcZYNZWUKSCjbLnyPHPvCUsyiJT8qz9qUoqBlGUH3ue+ZcsRKQ+qhLwBQsJj+zqRsWTfSX7fvBV88OTZ/P4FK/lTr57meZe+dSJk2wc/8/GZG/icvP1Oz+irMJZP7Dku3hkxYxGftDyPL3rhpEfvwuXvnrWEP5p/wCP5je/9ld8zZykHAEYb1OsZG17iMzfvdSkD+TVvfyTqzz75uZTdeO4bcW9Y+gJuPEbOyuQPZ+3imy/8XcpTveFxyUTIQZUQMby9a8YCScjTb1zgHXsn8zI+PvSCKHEd2fcOvu6U3Rgon7vjsHherkJFDnekCs1KEFevUYiDXopfQc1bC5LM3qN77aP7iHd9fcvy+buOuqwL7wyZMlfIt4qMtpRdceiKkEH71p26YSkHfd1ShgvZ+OFjpdygSXPEPWqHWVmpaoAga9u1f8n38GHZZL8gQjBR+Q9uPrBknSAEAf0PDW4nQdGVYWQAAKii+o1D+JaL9gA/PecF+QxfC4GnlpvPf8vDeiZKOehCN1mzTgMH3bgf1W8I33T+b6Z6agc1ljqatu/E4Z1qPcbz5DEPC/mGoe0t5TKee0vqXHn4mqUcdIfH9hOyXZPvlHJJoyeLe+XKV+C1gxo5HNVr15O60baOvQfw/Ks/iXcffDqfnoEDMWksTyBPXLZBEBIRX1AhCBg4Pp2vPXpVEoWhML4iH19fjqEcNd4dISCvRcduVDkPjezJZ+e+yulr2XrlB44uo3lEV7tMVAzfahKvVEJg+/glG6UdZI9aekLI49vfkPWq7VL10LkrQpq0jTC1ZcWhy7xj7xRZBzwK+qas2SHvMcbAhfhH3AQhma8clwJDpz4muzAK6Cjnbt/PH8vfy7de+U5W7o6QhLsfkHoHPfio5VcNglLGTpOy+PIICCqNhOALtPImvOMJIY9tOyjrzDrxmVOdVDdKbwjBe/DkqKTBop4KfpVE1+iWkGHpBf1tpSr+POe09fAXxOQqQ2BXhKA7KFOmjDAkcdREl42lhken3iPk0aWRe9MzIqRTwkAZ4waOf8RSryeEzM57TRLiLoZ4Swjsf+adT2T3PG7xelMPQb/1M1z/odV5PGHkWGFYUPNQU+9QPQXn+VcLArgrQmgkUTe4Kc99/5+WwBHgKCGXeO8kMTpS7+OcCEGwjhl8r7AXfffyg5dMdXtCyKwt+yQhJeUh1I7glm1FXbDLzEPQbaXF3zXmFjwideIMIVy1ek2+8dznbkkhL7EiBF8EjdTSMlaZAkaGelqqhAA8jF4oWJrp+L0R0rhNuLAX3bEVIWzzhZs/4YufufFPQhgNHLtwtVtCyEusCJmwbIvQh0FAzrs3i50QEIB5DOzFMXPTK051eEIIBhikI+v4p046VKKL0mVhBIqpAeoanbHSkpA9t9UL/M/yA2f5pve+4A1btRMvVKxchY/PzBb3jF2Veo10ihUhiBmoPLhVO5eNVBvs7lz1EMhi3kPzmgZNWzqNzDwiRIkh8GpXNhSFkKS0hwQeGMGuPvJnU0LK0ZcxaflG4RFP7H5TdgN4VqN2Pd6uexxPSpvIM3a8buo16dnPi4ogr85DaFSBsberRhbmmZEQvDttnd2zR8992qEuTwh5dOvr0v61xz52eN9omzeEYJbef2y6HNzEDR8j6jDrspzmIfj6QUpQSCtpJJGGslvKUL7+1McOxExds03KqoS0i04Q93vcMdJlI42NdnVtRgjkqa4q1WpwpFdIh0eE5B+Q9hdlHoK6OyemOhyYc/lV8Zf6G7XuwDFJhn1mhCCon8a4ePFLxxxA3nTuBk/P2s6TRk/gYTEJvHxFP6kUHoPujbquKau3ymcqIZjNgkSMtAigopZWhDz12nmZrOtzzwRZnyeEqPMQ5Kpc2ejKQ9QP13iOwU3PQaMc5kxWhJTLPv6RCOoEsFm58vBF3iJCpox5WsYyt4RQSiGwWSuXjQQASFkg4Wg8jH26FSHQgaEygEAf/eQr74o6PSFEnamvfvtDl7a6IsTMQ2KGjObDpy80TW5aEdJ7xPT5t+ARZkSo95DnCqhZSzQ6uGUbKW/lIZNXPStkMTFUs6PGL3DRi6dEOsb4VeHar3JVsUJJ77giBCM5/xoF9oVGxXhMCCVHUR+CLdVlVroixCp1YqYH98wIwcTwBxiSnr1DAqySYDzvOWhkAcjIjJ78SLyjEoJlXjIAfTklJTE8pfvGctnrF3mFSpWFXiMpGCZuOGtfGHNFCPRivkM6kPb2xEPU5OKqt65b2gn9JU2IaVA3kqBe9x9TMHRDo9GN4ZlKSNY7+MLsGViKIzXq1HcA1kgKYg/S4Djm7TwiCeraf5gDQO4IQT6sUWiYIAWyiCew1VW2d8m+c5JEeKvRNvW6WVikkI0fMU7KUddcHB7iQMjqty5z5LOW7T9j6S0I6Ggggjx1cyohzxz7gOcqi1hPvnxGegnWEtylywEopVuwooZgrQLijhDIqsNY9OvuCEGqhjwUKRm1PvUcAR/5NehTMw8lRkjiqPGisroNm/K1x645kTIj53mZComIS5LPjYTAa/Kv/SAbljpxttCLhmAMbrWIlXvpOx7Zd5CUTbWlqVVQPCEE8p373CH1uCME8t0HjBDySMVk7j0rbae6sUTQtnu8kMGoVM15lRgh09btlJOXwGYt+dS123j2iQ/5ioPv8eHTMjhm72gc4sK85w64JGTLhZvSG9CYiPj+EqCgkFCxjkGBfuWbH/AxC7PEwg7040A2l9ZLCBSUnhKC4AzgSJ/aZWXuOyt2flSrVYf716zFW0R04+nZu+WEGO9hKRbxBHEQS7vINpCuoVMzHAgrTkIQ1P+NisZnZgmAkWCkdDkZoJZ4NmrOk5IMYwxBl0UxJ/eSfdUPpPQamuakG3kuo34sj5otThWGEMgOfGCm1E2EYAhq3r4yvHWXXg6TONUuOkeG2djteksI9hLY9N6iFUNMDG/g5rCHH5dATliaw+sE25dKyZj6TULEZJEAp3Lu9oL1BKyjbHj3U6kHz9WFLICEr61l5x6y6yPdAKllp+4caxOQszooqMKjrGToPmbEteoXLEdjjeXx7YcIAFH6+VXifobRXd3gJmKZlWIF2Ve3YTM+Yelm0zrhTZDr0CvJ9DnZYyzxcdj0fwYi6LcPN9t0jXEAEgF7/vOHRNYX6+0Ldh12eE5kUDl9/U6RcqFre/kV33atYA1ZNQgTMJCDJdhp6/dwd1lWehepDeSujAtX9NxYQi/kEZ8oCYn2RkT24IkpQ8XRJbo3L1vWvmcAcWTB7qNityE+EHc7VhATMadwt7hltE3ZMPcykYFyHAzE1H7ezoMuQbeD7Lyr0dWzLRcwj7APhY2G/VrXvjbQa9SsJckgUuKTUnnlKlXpixVxEl1KSdm2cM8JtZe4XyWkEmPsU5AS2LQFz3rneomQkvu+PZ6UVCPd6fXxKYhXdeoFOhFCxNSp10CSAkw8XXZ2V7f6HHMuLBVAP2PsY8aYn0oIzgfSdiAs3y5+8WiJkPJb7w0ubxt1VfUPsCQExLQQI6qCfQAALaRDFM+/Ujw7Npfuv8Cx/8xGBrb/pBjJoGv8KYLYo4UJWVRSKh+3eC2fk/cyR9AurmP+riNOCURjQrGkrm+rFySAQNdFHmFVRnbrxX2VESCGx3PyXvPKdqRmsHqKrIOyfRRYpxP4VuWdjLGvbewRi/+XZUK/QW5JiU1I4RWVZYdixAUbrIdYkWC8j53YsxhjZ4rRgN8dqV2i490SQt5zW63axWX/6V92+cw07nY3EuDqugJjLMj2J1j4M6z/9SOE/kKsdfsIjwkBMe3Do9ShMSZyiwqBBzAUOxNdgV1an52E5wc1bFIoQkBKj9i+DkNjxlg+YwyjVP0rAgJrQUhAtRqFJgSkxCUO5IYuDN0QPED/vETgPhDi4+PDE5IHe0VKn/5DeOOmLdS48iVjrIeX9pT618JosFKYwE4BXi3bhHUSxNr0/cgYiyn16HoBAIIrwOOh7QoX2FUy6DyqexyvYB8aI0mIgZD+FRKB4yAkKLixV10WkUElkpPkddpLCsmETXwNAPQ2sBMRVPZOSlUJGeCdSaX7rdEgpLCBHcG8V58UHh2XJI/uvRJ5/cBgIgSLfcGlG1rvWt+OuhhPAntk91het36QOjEkAowlhtT65wUC2GQu9qOFtg23jCPIdzUIamgE3ewag4SnGGNlvbBFv2JD4Bi8JPB288DeJ3kwx0IWeRJj7Dpj7BHGWD/GWAfbEc4Y6/gLGf4a1aIjsApg+wdUN/WQJiFyAQmkPMMYg1fpXwkiMAqEYOnamIpHoFZ2pmwsQRu0agWBNtQdRfWIc/ASLPHanuF/uQhQ3tGnJYgAAvD3AL5lmzBJCEZdRJQn/8lYCdpXKlXvBvjYm4UlW5DhH1CNCMHGD6fNB6USpV+x0Z0pr6V4BRHi8RLrr2hvqagqkTH2oUII9hQgRa9/vyECiCetbHMK3U39hkToqjUCGgGNgEZAI6AR0AhoBDQCGgGNgEZAI6AR0AhoBDQCGgGNgEZAI6AR0AhoBDQCGgGNgEZAI6AR0AhoBAqLwH8BiRzg5swDmO0AAAAASUVORK5CYII=;" vertex="1" parent="1">
          <mxGeometry x="-160" y="150" width="100" height="100" as="geometry" />
        </mxCell>
        <mxCell id="9x1tPgVooMuBBy_g9e1C-28" style="edgeStyle=orthogonalEdgeStyle;rounded=0;orthogonalLoop=1;jettySize=auto;html=1;" edge="1" parent="1" source="9x1tPgVooMuBBy_g9e1C-2" target="9x1tPgVooMuBBy_g9e1C-5">
          <mxGeometry relative="1" as="geometry" />
        </mxCell>
        <mxCell id="9x1tPgVooMuBBy_g9e1C-2" value="" style="shape=image;verticalLabelPosition=bottom;labelBackgroundColor=default;verticalAlign=top;aspect=fixed;imageAspect=0;image=data:image/png,iVBORw0KGgoAAAANSUhEUgAAAGQAAABkCAYAAABw4pVUAAAAAXNSR0IArs4c6QAAFRRJREFUeAHtnQlcFWX3xw8irrjLjooLmppwBzS3V03N3EqzlDtXBU3TbLH6p71Z/94CMzNb3txDxQVk5mpqq5rlgpaZC2mEWxoKikoo3rnlUqnn5Qx3hmfuAhcBHYz5fJ7PM1zucn7nO+d55lkHoPKo9EClByo9UOmBSg/8Qz0QO2pV3ekxK7nYscsN70Yn1v6HuuHOy54+ZkX32JiVW2JjVt6Mi0lESrExK69Pj07cHhudOOjOW/gPsiA2ZuVbcdGJNxQQ9vmU4XPw2aEzNsdOjK/1D3LLnZEaF504xR6As79fNi7AoZ0f/x4ARgFAzTtj7V3+q7HjxMDY6MS/NADGJOKyNzeh+cPtOPvp1XLRxf5/3ODYBwDgPQBodZe75/bLi4tJeoN19qwnRcw8moPKce3KX7j8ra/socwFAC8AEAGgsggrS2xxo5N2sEB2bzqksFDz7IwLGiCxY1Z8brNhIABMKUt7/nHf1WFkcoPI0UkBnUYmtwjnRe4/0YknWSBnT15QQSgn1/++jnFjCu666L2vRSdenTw6KfMp0/KzPo1Dr/U1JZ8M54VznNF8ieNFVJKBFyzy63xyKhclfszx4kzOaB4YdjfeSnMj1rQzmISnOaP5PQMvfsvxwu+MI65wRjFPk3jh2n28iMNGChg1KhnHjF6FL0fTbW2ho8nZx9OyFQ5qTsUWC409960fjE8Ono4Dek/FkPsmYkCHEejbZhA2bN4T6wVFordPG6zVsLmcvH3bYf3gTtioRe8bfu2GHvFtO/g/APXrV+io4EYmN+NMwjccL9xUALiT9zKJ+Iqd81nHKufC+1sRb6os5JNdX6a7BBIZej+2CGgvp8CAe7F+ky6aVC+4IxKImvWbYdXq3ggAmuRRxfOmp2fNFAAYX+HqowiTEGYwirksgPZD5mNI18nYqvf/4z0DZuG9QxehwbhKLTaU906OTnLpVAWGkq9dsBOp3sjLseKOT37CNx9377MUbV2ZIkv5bTYPezQBWz8Qh4HhJqwbEI4eHp4soLMAwFeIiGk3Yo03xwvHFHGGqEQMCIvCpvc9iYaoJAcAyvsoj+BFfMON6FCAlCZ/eKRQpC2sXXROF1BgGE/Rc4OJHrqL89A1GINJeEURYzAmY8OQf+E9/We5Lf52ARkxMtltmxQ9lIc9uhRrNwqlCFEi5kPdAomcGO/FRYk5igC/tkMwpNvzJRL+agmKrNJEyLBRtwaEtBmMq25W9fL+hoHyqC6hRJiEPgqMdg/NwdqN25QIBn122m0C8sAtRoiiL+yxJYsAIMMGJRMAqusOSoRJmK0Y3KhlHwzp+owDkG5j1uDc5FTcse8k7k8/raaDR87gsYzzGB+3we1K/VYjZMb4ZNyYcgw/3XoUk79MxyXrDuI8IRWnx+/GZ9/ehvzLG7HPhPUOtivaKDfwwol8IDFMlEzQHZBwPnmLbGxUElatXgfDHl2iEdUlZrUMwGq1oquU8tmBcgeyIXG3y99n7Uo9dBqN/96o0cBCaffQrKYAcMkG5TsdAhHOkcGt7n8FazYIcRAyY3HxjriYewnnTFlXblCWxm3AvIuX3AJCcE6dyUWKahaEch5uND8IAGtsQK4DQB3dQJErdKN4g4wN6DAcGzTr7iDiy5Rf3HLE2awcXD1vO74zyVxmYGZNEvErYU+JYCjRMmnGFgctpNNgEp4AgP8wxVZv3QDheDFQuXLqBXVEv3ZDHUR8kXLMLSCKIyjPzszB0yfPY8bRM3jiUJacDqdm4M97T8gpdedR3J9yRE67NqUhpe82/IRb16Xizi8O4r5th/FYWiZeyrOU+LcVOyZO/8ZBiwyEF98AgOEMkGm6ARI2Yk0bBUiNek0wyDDaQcTar4/cslMU59yJvO9ElxX8LADgGCCJugHCGc3hChDPat4YHDnWAQjd1dwJh5b2N13VIQaj+b8AEMoA2awbIJG82FkO46gkBPDApp0mOADZsMO9OqS0Dizrz3eNcV6pc7y4EACCGSAHdQPEwIv3ExDqRCQDm3V+ygHI5u9OVMgIKQJIAgA0YoCc0Q2QCJMwgIC07vemDCSk22QHIFt3/1ohgVD7SSmO2dzAi0kA4MsAydMPEF4cRsa26PmSDKR59xccRKTszbirgHAmYSUABDBArukGCGcSTASExjzIwJBuzzkA2fXjqQoKxHkdYjAJy+zqENLuqQsoBpMwhoA06fSEDKRZF8d+rD0/Zd1VQDijeYltipGs2RYp1fQBhBfHEpAgbnQBkM6THCIkNf1MhQTSOdp5hHBG80cA0IEpski7PibmGWxAqNuEDHR220s9umV9S1qS75MuXcK8Hw8i5SX5nCsgEUbzAgDobAfEW1cR4nvPwzKQJh3HOURI+i/nSuSIkjituPdaMk5i5mMmzIjsjlnR49GSddptWzpHO7/L4nhxHgDcbwekrq6ANG7VTwYSHDHGAQiNdxTnuPL4v2SxYOaYCTIMAiJDGTkWpZwct+xxCcRopmmqNAlP1mzLG+oKCM1zIsOc9WWdOOWeA8oSiiRJKH77MyZs3oc/D3hUA+X0uElo/S23WCj3jXYeIQaTMAMAaPiWBdJYV0AaNO0qG0czNKiSZ9Op08WLL0sY9F0Xdn2Ai1PSMD7lZ1y6eT8efmCIFsoTT6M1t2i7XAHheJG63kfbAfHTBRCOF8eR8+sFRchAAu4droFB/ztz7mKxV2NZApF2zkDLXB88kDQKF2//SYaS8NU+PNyvZFA6jXIRIbw4FQCetgOikwgxCU+Q0+v4dZCB+Lcb5gDk/G8lu7spDRzp27dlGASE0uEVQ3HJ9gNqpKT3f0QTKVkxT6Al03k7yRWQCKP5WQCgMRC2yNLHlNMIo3kiAaGZJmQg3W3R32y6UIKh01LB2DVbA0OBcmT5YFyqQPl6P6Y/OFQDJXPoCJQuOkZxx1FmjQ5Fk23EcKYdEH3c9nK8OIkMrdWgeQGQNgMdRFgsUrkXWdL372tg/PGRL1oXFkQJgTme0BeXbttfEClf78dDLJTufVDKznaw0RWQCJNA9cd8OyA1dFGHRPDiMwSkRt0gGUjj0H4aIJEms4PQ0kSBs89Kuz/QwLi82BdvmAPw94W+mtczlvbAhK17bcXXPjxkq1Ny133q1EZXQDiT8BgA0CghW2RV1QUQziRMJiDVavvIxjVq2VsDhMphZ04sq9ekH+ZonH5liZ8M449FWhhK8XV8aW9cvP1gAZRvUvH8oiUu7Ysc6aLIGplMK34/tQOij7m+BqP5eQJStUY9GUjDkJ4aINS4KivnO3zPnnlomVvo+MuLbTA+KnzNMs8H/1zpj5fjC19LXTVOBpK086cibaPoJm32iWZqAsA2BghNBdLHwRnNL5LBnl41ZSANmnbTCOgSs6ZI0Q5OLmIyHfteaf9iDQyqM6iYolyJBmmeD/6V5I9/rfJHOldetywIwqy0TWiRiq7bXAHhTEJXAEhlgOhnPMTAi1MJiEeVgnUU9ZvcpwFCEwVYR5bFubR/iSMM0QWMREcY1sOfuWVThMkxOkgrLbXLX3p9nAHyhz7CAwAiTMK/afmBYhw1ENkQ7z72Y7fEuwtKSk1Ayzw/9WqnuuKGGIBUXCkRQNHw9yp//DPRD6nIUl6nyHAXBtnjCkikSbgHAHIUzQBg0Q0QzmieFj58uQqkrn+YBkiPx9eWGRCnMMx2MOb7FsBYaQ8jGK1HN5TIFvbCYs8NvBgCAFcZIBd0A8TAi692GBavAvH2ba8B0mv8uhI5wVWkSGmr0TLPX73a/4gvqDM0kWGDcW1F4fvk6JAjw/mtravfo9dZCOx5q4HvsFOASPt53QChjrb2Q+YVAvHRrg3pPaH0QKT09WiZH6jCoHbGzdV2kSEXUwHyHZVaRFH3yYIglA59UuKLQpJcA/EL7duCiQ7Snq0bIAZefKPd4PdVILUbh2qurL5Pri+xMzRX7dGNslMVJ19Z7OcUBt1N0e2tts4IRuuRL27p9/MuWTQ62AipVqcR1SGqZgA4pRsgEbwYS6trFQNrNWypEdJvUsmvThXIiRS0LGymRsaVJQWRQY0/BZBya/tnon0x1QStRzfeEgz6fep/YyGo50aRFn+GK3pt+a+6AcLx4put+01ngDTXCOn/VMnLbnKIdPIHtHzUUnU8NexumgOQhUHRIEcG3U3ZenflfFELtJ7Yfssw6Pdzcp0DMfDJlwGgix0QugXWxxHBi2+F9nlNBUIL8NWriRdxwNMlByJlpaIlPlR18u+LfORG35WlhY0+pQVOQCzzmNfjQ9F68vtSwSAg53LyNDoKNQkXAYDWg6iaAeAXfdDI79AxGM3vtOz5smocLUkoNF7EQc+WDIh07ihaEsJVGNaFBe0MKq7YKLi2wg//XhWgbYEvaYvSqb2lhkFAzpy7oNGhaKK9UQCA+rJUzfmbCRzVDRDay6R59/9TjaNeX8V4ygdPdq9VTE6w/paJloQw1fEyDCEAryzVFklXl/vh38kBKM1nICWEo/VMWpnAIFsys3M1Ogo1CVkAQL29qmYAOKIbILRWglbdKgZWr+OvETLk+c/dc9LFc2hZHqGBcV30x6v2MJb54XUhAKUFTAt8GYfW7EPu/Y6bfWUZWb9pdChADEaRKnD78fTDugFCc5SadppYCMTbVyNk6AtuALl0AS1J3bUwBH+8mqCNDKpDrgv+aGVhJHZF6fzxMoVBEUIzZRQI2lw4BgATlQvQlqfrCcjC4IixKpBqtRprhBQLRLqE0sdDVBhyBS4GOMCQB53EAKRiTKlLpFU95GJOLu7cvPLdfe+xDBdAjCI5/3k7ID/rBoiBF+MDw0eqQLxqNtQAefi5YiLk644orQlSnUx3TZpb27k+eDneD2+I/poRQCmpO1p/K79Z9YdPnNPoUKPEaD7gZIJDmm6AcLy4VJnXS1eNV436GiEPPVdEpZ6XhdZNzeQkCYVdI0oEUO5snMOS2BWtOeW75iT9l7MaHQoQg1Hcl78TUJxdhOhnSRvHiyv82g5VI4R2clCMp3zQs0UAOfu9CoTASKsLI4Vg/E5d62Ya7WPqkpWd0Xq+/JfIHTySrdGhaDLwIm1DO9sOCEWNPg5a3uXTeqAKxLNabY2Qgc8U0Q75VdQAkaFQ8WVr6FHbg+3Npbsw6dztWUD646EzGh0qEJOwI399IU22VjXbRg/1AYTjRaFxq76qcTSUqxhPeZEt9UOzHIDIUNYGazsJ5/qgRO2Ms7dvvTttkMPqUM+jxK35q6eW2gHZrw8a8oihuIYmNigGVvGsrhHS30XXCU2Gnm18FffO6eEcyrpgtMy3tTWWtEPrmaInJLh79+Tu+/akZWl0qECMwlf5a9STFb22nOoVfRwcL65r0LSLCsSjipdGiKvOxcxfTuOUHq/jS71ew+/e7e0cysfBaFkcilLm/jJvZxQH5vsDmRodChADL36Rv3pqnR2QvfqgQftL8OKnykRrMpI2jVSMp9xV9/vuDXtlIARlas/Xccv0AU6hWA/MvO0wCNa3+09pdDCaaD7WJjsgP+gGCF0xNI7OGsgYj64GqNZ/uFYFokD5bnYftG4KQWlnf7T++Apas7agVbp9E7XZqEnZe7IoIFSPsJr1AyQiSvyS9r1lDaRZKAoU2sCFFaqcL3phmQpkWp/XceGkmZi2eQ1aL5Rv+0L5/eLybXsyVA2KFsoNUeJnALCT1Zu/mmqPbiKEM5o30LAtayC7LayrMfXdG/bhZws2Yvruw5h3Mc8ptOKcVp7/37L7V6dAOKOZ9pWntgirWU+VevJG2qqbNTB8+ApVTFnNOilP5zv7btqfhY0M5dxWqVMlzmr+UU8R8nnN+k1Z45B2h1YE9BxXdvOynDmuvF7buPO4qkHRQjkV0XbTSEm7frpOwo3mtcpSBOWq6TBssSqGZr/TlJryclx5fS/tgseCUM+N5g02AOxFqJ/eXmqpV/f2Z43Dex9ZpBFDG0qWl+PK63s/23ZUo0EFwovUBqHeXVazfgaoInhxubI2RDGSJs4xApDCv7wcV17fu36LcyC2rZkoIlggNGilj4MzCe9X9/ZljcO2g97VAHlhdkqFA7L80zSNBuUCo/EfAKCIYDXT5sr6OGg5Qo26waxx2PqBWI0YmkVODa3yuprL43unvL9Do4EBQjuS0g5yrGb9DOFGmISHabYiayDNQlEEKHmv8WuRthkvD+eV9XfSdlIuNw0wCSYAoPUgrGb9NAzDR6wJov16WQMDwx13cyAwFCnPzNyGtMNc7oU70yVSFLzs8xdx2Sdp2G2si22ZaOe8+6fSI/k0egGAOhz1czRs3otm86lGOtvdWokUJafb4aiXNuJTM7bitDk78fWFu/D1BbvwxfdSXKYJcd/ghOnOE+3VXlyi36MRTCXR8LLyGXrN1QIdxWZ6ZlbVGt69WK22c9o/Sz+HT8t+1FhSgdACUI4v2ZNsVNFOFlnq6H80MPUSq9V2/qJ+aNBO9IHh/7I3MrSvtmLXkVMd6je3bYta3TN/Xi8N4aoXn+2cJl/r6vCo4ln9d9ZQeqCW20L1HRWyDlsfVhir0XZOuvWx36LdJTHH3lh6INjdACXcKB6xLWOz71SkSKENMXV50IOA/2Kh0Ogh7VZakesTeihm0D3DWgPA16w25ryjLmnYjPqAMVQtZ71922LLXtOQM1aQit4o3mj/yIJ9Pq0H0Y4/tOGl1ZkuAKCORl0ftCMOTYlRYbDnXrUaYsPmvbBJx/FIlX77h+cgPe+wuGIt7LFl8mPr7h26EOmhY+0G/xfbPDhTTq16v4ater+KLXpMxebdn5c3dKaopBQYZroe0CHqil/bIVd9QwdaG7fqZ2nQrIfUoGm33Dr+hot1/Duc9/Zpe7ZmvZBz1esEZletXve8h6cXbRv+J2u3i/NcAKBHH+n+oJ3VaHzAKRQXr9+s4ul1xYNSlaqXPTw83XFISb6/rN8rAQDdWVaYozYA0P7oZe0IPXwfrZairTUq5EFr8agyvHkXwKGlbC9XuAcUu7hs6A7sbQCgyQC0lZEervSibKClz/SYVdqC6c38SQ30VDZ9bFDmwsGleZkeMUf7TdGTzuguZjkArAcAeqQpzXeimwL7RP9TEo3Y0SPrKK3If2wEjU9QognQ9GwoSvS9dDUraZJt1ROtfBoFACNsqT8AUGchtcAjAaCN7akHXqURWPnZSg9UeqDSA5UeqPRApQcqPVDpgUoPVHrAwQP/AyluR/mg8IIhAAAAAElFTkSuQmCC;" vertex="1" parent="1">
          <mxGeometry x="230" y="150" width="100" height="100" as="geometry" />
        </mxCell>
        <mxCell id="9x1tPgVooMuBBy_g9e1C-37" style="edgeStyle=orthogonalEdgeStyle;rounded=0;orthogonalLoop=1;jettySize=auto;html=1;" edge="1" parent="1" source="9x1tPgVooMuBBy_g9e1C-3" target="9x1tPgVooMuBBy_g9e1C-5">
          <mxGeometry relative="1" as="geometry">
            <Array as="points">
              <mxPoint x="210" y="70" />
              <mxPoint x="490" y="70" />
            </Array>
          </mxGeometry>
        </mxCell>
        <mxCell id="9x1tPgVooMuBBy_g9e1C-3" value="" style="shape=image;verticalLabelPosition=bottom;labelBackgroundColor=default;verticalAlign=top;aspect=fixed;imageAspect=0;image=data:image/png,iVBORw0KGgoAAAANSUhEUgAAAGQAAABkCAYAAABw4pVUAAAAAXNSR0IArs4c6QAACbVJREFUeAHtnXlwE9cdx51J+kfzB9JKxvJJMYcxBh8UCnVcS6sVV0NdA8ZlLDsTDCmltAXXY+JgSIbSTmrrMuYw92GvzJWEhAmEcDiBUtJCXSCATWsSbhKMbSGYlD/yz7fzVlpJlle2lIAtWc8z33nat+uV/P3o+37v7e6MIyLoD3WAOkAdoA5QB6gD1AHqAHWAOkAdoA5QB6gD1AGfDuRs/upFdufDobo6W5qOt2VredsMrdWm5+ptizjeXk6ksz58i+NtlW7ZazneRuTqE45psJVzRFbbInIOci5yTt1uWxq75+FQ8l4+P0i47NDVPVZqrY+zOP7xaxxvr+SsD+s53t7I8fYWbZ3dzvF2dNVDcLwfstrA+aVOcFa3tHyHXWvtbOYaOhs5q62e4zsqdQ2dC7RWWxb5rAOKi273Nyod/3gmx9uNHG8/xdXb2zn+EdzyNl9q2w8YBJhfMAg0NwzfrzvAWZ3i29s5vvMUx3cadXzHTN3uNlVIQWIbvsnQWu1VHP/omtt4Twier6UAePf1MxARjGfLd7SSJLENDzKCEw7wHFf/6BWOf9TC8Y89EuBpvtRrb/OltoMQiAtOO7TWtmadtaMoAnguKODk78fzLG8/4ABBYIQXEM7aDiJdQ8e7xIt+h6Le9GBuVxjhCYRAUW+5+6t+BzJh9bX57A4yrIjpCE8gml33kb76P/P7HUjGG835P36rFdm1beDqRShS9UKqT6pmePcFdw3h+Ha8tOkOxq5qRsqKS/lBASRjeQuIxq+6hszqu2C3d/pZ2L3Nl9oOTiDqHfcxseYGUle3YPTKS4KCDogIJl2A04pJhlvIWv81NDtsPgBJAfDuCw4g6p33kVl7BxNMXyL9z1eR4oQgwiBtUAMhUNxqRsbKq5jwly8w0XATmTV3kb2xDZrtHdDWE8O9IXhu9x0QLd8BzY42ZG26h0k1tzDe9CUy3v6vYzhaeVmAQECI8oQRckDSlzdDUEUz0p1Kq2gGUfqbLRj3p1YB2E+qrmOS+RYyq28js+YeXlp/D1m1XyF7032ot7Q5tO0BNNvbXWJ3dYKtI2Y+cEm9rQ3qbfcFZW/+Glkbybnu4KfrbmPSmpuYaLmB8YYvMO7tVqSvvorUN69gzIrLglJWXIZLAggCI4yAiGCk2tSKZjh0BakVvjV2xRX0rMsY6zRcNN5X64JBwFAgjtSIcCiQAOdtZNorFnOxddcOsY44hysybEkMWaL5Ui0FQoG46wcdsroOVyQxNCE0ITQhUrVD7KMJoQmhCRHTINXShNCE0IRIJUPsowmhCaEJEdMg1dKE0ISEdkLGlPy7RLyGJbbhei1rVOm/SgL8Pj/9w0f/7jODCEJswxXI8CVnq56+wwGecdi84/PTXr8s3FMPZyCjll9EbPHp4gDte/qHD9Efyk989SjSln3ughJuCUkqv4C44pOI1jf2/1MnBEhCwYcYoj+MpEWnkbrsc4976QP7fsio8vMYuvgzxBQ1IqbwRHABIVAcOoRhxY1IXnIOaeVXnHAGzg2q5OUXMaLkLBJeO4WYwuMCCAIjqIEkFByCqMRXj2HEb05jdEmTIz0hdscw+Y2LGFnahMTfnkF88adOCASEKAeMkAFCwMR7KKHwCBKLGwVISX/4pwBqzLKLSF1+RXgCxXtx2BcLw5SKS0h+/QKSSpswYslZJC76O4YsOIm4V04gtvC4S24IIowQTIg3kPiCw+gm/WHE6w8joehjDJ13AokLPsWwhacwfNFpjFh8BiN//w8kLT2LUUvPIfmPTS6llJ3H6LILgpLLLoBodNl5jCptEpRc2oSkknNIWnpOOMfwxWcEs4f++m/40YKTSJj3CeKKjiNWf8yhwmOI7aYwBhKv/wi+FKf/CHH6Iz3oY8TpfekoYvU9iQLpmhJnQnzBIP0UiJ9LFnHa6znLEgu62HrWkG7DFRnCKBA/3fbjMAokxGdZNCF+fMu/zyE0ITQhPmZavmZYpL+nGRbZR2dZdJb1fYalnn6XDll0yKJDFk2I4/JJ2F3Loiv1nr76fu6Lm72nwr1KJ/dE3JfexdfhslJXzf6gwk/bnt1hMbm8hQJxFPbI3Hcsz85pP88cnbuzkgJxABmcu6/ST9ue3WGDJ68rjp/7gfP2bfgOWdEFR6GcsmXes3PazzMrNIb8yKkbkFBw0HVPXawdYjvga4j+GJRTt0KmWdP/T50QIAxrgHLyGsTm7Qu7oq6acxAKXS3kmurgAkKgEEVOq0Xs7L1dwAy4hOiPQ5V3AMppWwUQBEbQAhHBKHQWRL28DbGz9yGu4EOPBx1831MP5nVITOExRM15H8oZdWC49V1AhAQQBxgjGNYIhjNj8PSNUOXsQkzefsTNJYA8wAThHcOYgiNQzTmAqF82QDl9G+TaGsg1FqcciRBBiG1Q1RAxGV1bJxACxUsKXQ0ip29G1C92InqmFTF57yBu7sG+fcih4Chi5h6CKu99ROXuQ2QOj8ifb4dCRxIgmi/VDkAg3oDEbQVrgnLyWiinbEDk9E0Y/PJWAVpUTh1UuQ1QzdwN1ay9iJ61TxABSRSd9x6i896FatZ+h2buRVTubqhy9yAqx4rIGbugJGZP2wLllFowunVghLFfyvDe+sIIiAOMCQwbmOQaMwJXb8b72k+B9AoocBgEoC/De+unQCgQPxfqEeLCsGsxd6xJxLoQeBvYcEWGN5oQJzEKxD18hfS0t+fU0IT4O0J1O44mhCZEssDTGkJrSLfrWbSGeCweaUJoQmhCerqcQhMiJoQzTJVeFJLFYfervP71hei0V22Z2m0a2tcdsTmrXmRYww1pKOEExHI9PtPyw772X/L9FDpTipytut0dSngAkWVX31SypmRJc/qrU85Wy2WsYSPDVn3rBjPQgVi+lWVX1zKTK2X95Xuv7yvT/XWYnDWYGI2hw796IQUtyGuIurqdUVcbZep1ib0aEjQH5O9/nmFNP2NYY6WMNbYEBicogVyXayw1MrZ6csT4zT8IGp+/6wcZpDaMZFhjkUJTVSPXGM/IWcMT35D6F4hMY/6fXGM5M4i1rGFYc9Egdc3I7/p3h87vsateUGgrx8i1xlyF1ljKaIwbZKzxiII1tspZ45Oe1hxS+wJdh8g0pidyjaVVlm05ImfN6+Uac6lca8lVaC1jIthVL4SOkX30Scl0WqE2J8jV5nEKrWkaozXqGa1poYI1lzGssZxhzSsY1lwpSGtaK882r3Vta0wVMrW5XMaay2Qa00JGbdHL1JapwrnU5oTY8Zvpv+3uI470bagD1AHqAHWAOkAdoA5QB6gD1AHqAHWAOhDaDvwfAH6O8r9Pr14AAAAASUVORK5CYII=;" vertex="1" parent="1">
          <mxGeometry x="150" y="-110" width="100" height="100" as="geometry" />
        </mxCell>
        <mxCell id="9x1tPgVooMuBBy_g9e1C-29" style="edgeStyle=orthogonalEdgeStyle;rounded=0;orthogonalLoop=1;jettySize=auto;html=1;" edge="1" parent="1" source="9x1tPgVooMuBBy_g9e1C-5" target="9x1tPgVooMuBBy_g9e1C-6">
          <mxGeometry relative="1" as="geometry" />
        </mxCell>
        <mxCell id="9x1tPgVooMuBBy_g9e1C-5" value="" style="shape=image;verticalLabelPosition=bottom;labelBackgroundColor=default;verticalAlign=top;aspect=fixed;imageAspect=0;image=data:image/png,iVBORw0KGgoAAAANSUhEUgAAAGQAAABkCAYAAABw4pVUAAAAAXNSR0IArs4c6QAADrRJREFUeAHtnQd8FFUex196IwkhQAgdDEiJgBTBghrhPoIgcEqTogYyb0NTY4FDQQOIoMAmWA5RDwQFdWaDBeHgULCdghwqAnoQkiAgYDsCBKnJ7/zvMpPZZcvsZsts3P185jOzM7Pzf+/3ff/Xdx5joU9IgZACIQVCCoQU+BMpAJE3hyT0h4lPgig8DokvhomvgmjYAJFvgmRYA5NhOSTDUxAN41GU0wvL7439E0nku6jijYnNYDKMgSQsgSh8BomXQ+LwYDsDUdgCE8+DmNvEdyGuZU/GmtyGMPF7IAkrYBLKPBBeAyyhEiJ/D1LuzbVBvqaMsfsZY+8wxv7DGCup6RYdGXEoJSH2tyapCWdbpyWidVqST7buVzTA4B4tUZh9HQ69ONoCjsCsmpASjGDqMMYKGWPnGGMI9i0mKgJ5A69CxevjADFnO1aOTQgmKJTnfhPsEOyF/+pW9fHjS2MAE18ZLEDIM+zBOMEY+4wxtsnZFhYW9kFGevK+rI6NL/Tt1ASB3K5v1wiJcVGXeTdBOU2eYhJuDQYolE2pI1HOGMthjMW4CjzE7AaQ+Ke+KZg9qmnh7OrxeMlwI5Ljo9VxwoMDOwEi3wWwMFfxCuR1KsDVZQbByNQSIBTxdJj4Xj3BUIdl58KhSIqrhkJlyuGlVNAL/bXEL1D3PGDjHeQZLj94fUqSObV51l7QUG31zDvUQOj4Rd7byksWZ19HXkJZsG4/VLWVA01lhutsKj8/3FLH945otiJ68/uZ1eOtypQh17S0JAZTTie9EtmhAkIFuMuPuSWsc89QQ722bZqc4EDtFPM1k7DIZUQDdMM+FZD1rsIAccKVkPgZdYT1ftz/6mYKkDbpyXJj8YBeC3c3gQjr9A7ANnx2gZCHFwk9XCXAQFzXDASSoY9tZIPhu0MgkjA/EIK7sqkJCLbkR0Lku4MBgG0YHQIR+feuxAnEdW1ARM5tIxos3x0CoWxLnNgoEKI7s+kSCMRhETDx/XsKhuGRQZ3B+7av8Uadfv9+crBf2iNOgZiE4c7ECcQ1DUAMI6g7omFynFJbUdXMPD4Xq7ScfduecQpEMrwQCNGd2dQAhG/9ZdndCAtTGpAeQ7AFufWpIT73EqdARL7LmTiBuOYUCIp4llxWPDGsGxJiIr0CIzoyHONvaYcq0bfeQWF3AaQK4vh6gRDekU3nQEReJAMJ1r1TIOb2CM9yJE4gzjsEgjWTUiEKZ4MVhBxul0BMPC8Qwjuy6RiIid8nRyqY9y6BSPxVR+IE4rxjICLfEcwg5LBrAPJ1IIR3ZNMuEKzJzZQjFOx7DUDOQRwW7Uggf5+3D8TE5wU7CDn8GoAAb+a097fwjuzZByLy7+UIBfteExCRD3AkkL/PXwYEJkObYIegDr8mICZ+n7+Fd2TvciCSYZo6QsF+rAmIxBc7Esjf5+0Ayfk82CGow68JiGhY62/hHdmzAoLVOWmQhEp1hOTjc2/k4JPZg7Bp5gDdbBQeCpccRnt7TUBM/DtHAvn7vDUQSRhpL1LU50SzAm07B/XwvXf7Rk77xDQBkXiFv4V3ZM8GiOEle0COvjxGlzDkBEHhsxduOqcRCA1W0ZTagH9sgPBiexEjD6GUKAugp/2NHdK94SGAOD4j4DQYYwqQuKjIzfZgyOcor/50jr7KEArP+Te9UIaYh3P5DboC0rJB4k5Z/Nq0155lGYbqCki3VvUP1SYQclxG985QstpebRs6LGvoD6a6AnJTh/STciRq0/67wuHo3DIVGY2S8NGs2x0DkXi+roD069KsqjaB8CAuC3UFhPJaDyJRe35j4ktDQKh2o5fNxFeFgPgJRuXbuTi3cQp+/zgPFZ8/hIovHsbvn+bh3Kb7UPlOriVRiPy9EBAfAbm4dgJO7piGnw/OwsGKp1GKAiebEYdOPY1jh2YdPoBFWQAC+h9EpWEY9GWIiZtT/5Gf56K0yhkAl9e2lcLYO1DeUiuAVHzxkDmVO/cElyAULyqB8WIZCp4A8sP9DUYzkJlDuyLeSzMXbfvC0lPisXHGbW4X8BfWT8LRn55UhFQD2bBrKh5bNBj97uyMtpnpSE6JR0REOGJiI1GvQR106dkCw8b1xMIVo/Dlsdl2n1GGRau3ID/Sn1A0AaG5vbYievt7zzZOWtF2yhoqlA+cW2gl5H/PLsDcpcPRvnNjt8IbERmOrAEdsOrDiVbPuwRYAsQIf0HRBIRmv6d5efa7LVDq4tBaBT715SOXlRPPi/cgvVldt0DYhoG+97o5Axt3T7MCU4ZCo66AkFDfFw7H1MHe+X+I7X9M5o++BidXZmsCUrH1YZRWGRXBdpbPQ/+hnR2CiI2LQmbXprhlYEdzFvXXsd1xfd+2uKJdQ4SFhdn9XWRUBB5dOBglKjslMGb7A4omD9Gacn19H7Ulyi5Ww/jsh8fNwtqmdBJ0yJjuWLJmHPacdlzt/eLHfMxZMgw9ere2C2bQqK7YeylbLEFBRSkKr/QplLAwVixHRu/V3qo1Bhwun694BsGwzaIoxQ8Y3gVbih9T7lMX9M6Ol63naNfp8rKnz+0dUXxhkfl5JTBu9WnNKyoivCxYgJR/8zdFZMqmKMuRw077+IRos0c4E93VteKLizDugZusnkvPHpHTS7FdigLuMy+Jj448JEdKzx5C3vHDmeoalW2Z0ahJMt7/+mG1aDU6nv/KCHMVWdaG9gteHXXpmcZfD8Homz/5JMVFH5WN6hnIye1TFYGfe+seqxRMhfa72x9UrrvyAq3XZxQMsbJTJykWVOZYfl841ydekhIf83MwADl2ZI5ZCGpnqMsNKjOo4NYqsrv3UcNR1of29N3yDOMJn3hJap3oX2WDevUQyq7kmhU1+uTw0v62YV18BoOE33VyPlIb1lFsUu3tk7KZZpslKJjudS9pkBj7PzmCegVy9oP7FdHVLXASZ/O+R5Vr7qZ+rffPev5OBQhpNemxv1wCYiz1eo0rLTmW3iBnNqhXIDR2QeJR35QcVtpTO0OrqDW5b9/5haiflqjYbtqynmK3BAV9veoljevGn5IjqVcg5d9ONwtALWc5rLR/8W3flR22AKnaq7b94V7ZMwu9++KBxin6B3J8j6WRR722sihUs3LWArcVtKbfX1mbo9imMDyz7C7ZSw56dUArKIDssqTGNh2rp7JmdmsmC+KX/bajs62A5E7ro9jdD6P3pqAGA5DynZYsK6lu9btWqKOwpqnend/vrzSCuuhlD7Uuv4zee4FNMAAxd7WjAFSrkgWx6crwCxzqDZDt9x2UqbLpxUZiMAA5u9lS7Y1WjVZSF7o7Kdwb96akJihAbr2jk2K/DIXLvFbTSq8bd1Kmrtda1sX3Jpgjr26g0XiGN0TW+gzqIVCPnQzNvkaxvx8F73oNSMOkmON6B0JjLDRUS2Pgclgz2qcpgmgVtSb3fVQyQ7FNYcib3V+xXwbjOq8BCYauEwJy7Mhscz+SDIRSa3VHn/bZJJ5Cod5f2TbtlxRlK0BKUfC614DUjY/6STak1yyLgJz4apq5+1sOK+3n/H2oWhSfHtMECNk2JYYdv1jNdPHeS5mT46MOyIayMhtrGtP29TCtvedfWD/ZPFVHXfWkYVdPU7w7v9v+0xzz1CFZp67XtbKyW4KCO7zmIQkxUZ/IhpqmJjj9r549ofx57vDxeeapOnJ4aU/Dru6I68m9YyfdoHgH2bT2TOP5vVhY32tAGGM00KIY3PzEQN16yaltj5jnTanDS2PgNOzqidBafkN9Vur2D02w2209V3iFN2HQs7qpI5jZvB5OvaZtOo4/vYNsVRUZcPD0AvO8KXWYaQxci7ju3kPCq7v7ySZ1cFY/x3j2AAq8/xahq1rUK1VHsEdGAxQ/N1KXnkKtduqGV6daCjvVgqqFqnmta3/lInTq0VzJOcgG9aVRV7zKjqa1Vtz2oBdybrgrJSHGynhURDgGdW+BWSO6mxdFWWroDX9tr03JsqwXZWf6KHnKsR9nY/qCQVbhpTm7U+cPVIvl8TF5hi2M6JgIrP3KMi5TgoLKUhTOcFtorT9Afn74uun9jtaJvXwxLbXn+PO4XxfHf6+7uHYifqh4BjSJzTZMNOZNw66qVOzWMZUZttkU2aibGg9qHJag8GgZCn2/sBgt0kJrNlEZYhvJQHyntaOclVHn/zkZ+8vngyax2YaPulho2NUme3EKhqq2VJuyzQrVz05Mjj/Rs8+V/lmZB+unxEDixRffErByShYohdKrwNUB8tcxvUGbskpnQOja+Q2TUfbbUxgpXGs3nASGeoVpcGnrkVmgLnTZc6hv6uPSGZj38gjznF/6i4Jt/KgzMyU1ocrm/EHG2BVac58a3UcLnEDi59RCHHtlLEqeH+nXjf76oA6Ds2OakfJr8UwsePUuJCbHXiaqWkxqVFIXOlVd1eftHTfPSD2zePXd83r2yejAGFNmd166149QJGG0o/dlORMm0NfOb5yC3V8+hOHZPZ1mO/bEV5+LT4g+3bZTY/q/epQqdbcILBSRjwrWN1pXvjsBe94WkDf5RjRrnuLSEwhGWBirio4Np0WYcxljjtbLDTAUWjC+FryZdO+zI/CPKTcju0/7srQGietiY6M3/LFwpokxtpwxNpMxRv1QWrs+AgxlKY+C5YWYVuVKoLMnN+0fg2S4W5X91PQwsFAo9Ja3XAurIQoX3BRDc+Hsg+f+BonP9dE66oGHYgbzRm5LSMKzELme3xpUDJFP9sPa6fqAYgaz/N5YmAy30/rkkHi5D1K3e55lEsog8cUQ+Q1+XiyS2iPK/2su1daoStyqpvmix783NyjNq/AYZkAU1kHkx30OSBT2QRJWQOQTYBI6ehx47/zQHhTdvAOYUb8Y3hTaQhIGWtbMNbwASfgXJP4tJOEwJOF3l8AIqshL/lhmexskQQItDCAaxkMUbsJqrrVG5B25tT3FFspH2n6mk7sg5sVBzG2CogmtrTZa0Ufni887kbA1Y+x9xtjHjLHOTu4LXQopEFIgpEBIgZACIQVCCoQUCCnwZ1Dg/2rRHA0gE4B6AAAAAElFTkSuQmCC;" vertex="1" parent="1">
          <mxGeometry x="450" y="150" width="100" height="100" as="geometry" />
        </mxCell>
        <mxCell id="9x1tPgVooMuBBy_g9e1C-6" value="" style="shape=image;verticalLabelPosition=bottom;labelBackgroundColor=default;verticalAlign=top;aspect=fixed;imageAspect=0;image=data:image/png,iVBORw0KGgoAAAANSUhEUgAAAGQAAABkCAYAAABw4pVUAAAAAXNSR0IArs4c6QAAA+ZJREFUeAHtmlty2zAMRbOS2v1svYhO//rdJH2tpOvpUvrYQDeSFaTOaDTH0XBEAlaAirZuZjyIABMXPKBoi8nNjX5EQAREQAREQAREQAREQAREQAREQAREQAREQAREQAREQAREQAREQAREQAREQARE4JoJ7PZv/uxeH456zTF4+/u/916NmGvEs2+1hvx7fDjq9cyAhaqGdLIw1JBOGsEusWpDXhkf6u/efzhtZ8PvQ7FzPiZxDRYm2rI6uVNYVGqIGjJ+xWPvlB2/aekO6eTOYEF215CPt5/Np/e7+6+nD3smEmk9NdzefUmpobuGUJBlIxtQ5rK0iZfjIq7J3c2HOgV9//H3OPciHjH5Wg405vQHH/Ha+Jf4yX2xDeH5hIl47fR5pgRIDm9DltRQ00f7YhtSwoy4Boq3IRGa5EBbDZl82wKKGvL4cNqfvTC820Vti2BlTu25DWnVcI7uUAPaukN0h8w/qbNCLDtd0dG/W9rEo3W7vEOGhz4mXLP3n76lPJQBeM0amHM3WxZQtmrVkMlnRw+LQA1RQ8bdkZXQw6rsqQa46DOkkzulu4Z4jr51/J5w/7ASyu0Cv2XLcZHXljbxSE1ykTsBeTslwhSCxe89OmFcpF2zBrTb9BKiCJcg8Xsb0jpHItfUes6WeH9WDUP+Wh1oJyBvp0T4pQ0px0dcU5u3IRGa5EC7TS8hijCFYPGvAaOHGph/AvJ2SoSBgMXvbci5W9aQv7ZdZNdg6Q76zL9NLyGKMBCw+L0NYVykXbMGtBOQt1MiXILEb9lyXOS1pU08UpNc5G7TS4giTCHYNY++e6gBLgnI2ykRBoKs/pU09Y9cSxcYC7W9nBOiCC8t/FrHwSUBeTslwtcKdum84NKmlxBFeGnh1zoOLgnI2ykRLsHq+H38b5w2vYRorSH4LVs2MvLa0iYeqUkucicgb6dEmEKw+PWk3uYXHgU8jcDi9zbEc5blOUNCf7AZNZDTqoX3hQO3EiI8BbEERjk+4pravIsiQpMcaFv8wuMIUwgW/xoweqiB+YcDtxIiDAQsfm9DPFsWOae2tXXwvjVqQNviFx5HmEZg8XthMC7SrlkD2uHArYQIlyDxW7YcF3ltaROP1CQXuS1+4XGEKQSr4/fOHgxpzFYtCzX8DrASIrxV8LV5w8XiFx5HuFbYVv1wCQduJUR4q+Br84aLxS88jnCtsK364RIO3EqI8FbB1+YNF4tfeBxh2fFrbskhHLiVcLc7/CqL0PXYnP3+8NPip7gIiIAIiIAIiIAIiIAIiIAIiIAIiIAIiIAIiIAIiIAIiIAIiIAIiIAIiIAIiIAIXDSBJ6yRSSDGg7GGAAAAAElFTkSuQmCC;" vertex="1" parent="1">
          <mxGeometry x="650" y="150" width="100" height="100" as="geometry" />
        </mxCell>
        <mxCell id="9x1tPgVooMuBBy_g9e1C-31" style="edgeStyle=orthogonalEdgeStyle;rounded=0;orthogonalLoop=1;jettySize=auto;html=1;" edge="1" parent="1" source="9x1tPgVooMuBBy_g9e1C-7" target="9x1tPgVooMuBBy_g9e1C-8">
          <mxGeometry relative="1" as="geometry" />
        </mxCell>
        <mxCell id="9x1tPgVooMuBBy_g9e1C-7" value="" style="shape=image;verticalLabelPosition=bottom;labelBackgroundColor=default;verticalAlign=top;aspect=fixed;imageAspect=0;image=data:image/png,iVBORw0KGgoAAAANSUhEUgAAAGQAAABkCAYAAABw4pVUAAAAAXNSR0IArs4c6QAAC3xJREFUeAHtnH1sG2cdx5tObALWiSEGgoFA/INgfzA0CdVO4jsn3aq2rCTdOmBDAo2k3ehaoGibKkYJg71UGu1g2qoxpjR23uq2Se65o7QdQ22aNn0J68tiJ41zFz+P06xr7IS1hYaO5UHPpXHOF5/vufPZvjSPpZPvOT/3PM99P8/vef2dFyxgH6YAU4ApwBRgCjAFmAJMAaYAU4ApwBRgCjAFmAJMgXwq0N8/uqinB38sn3nMpbSjUXzLmQsXPlnwMvcpyfsicrK/T0niiJKYCMvJ+rPwX7cXvCAuyDAcxjdHhpI/7xtK9BI91ENOjvTLyW2Dgxc+m/ciRuSx5RE5MZnK/Hoh+uXkqWJYiycU/7hfhJV+EN/sF+CfeTHWzonxt3kRvcWLsRa/iJ73i/GH+b3DX3RanFND458KK6Ndei1SYTk5Eh4av9vpfFPpYYxLIvKokspwukZc/44oiXWpyPk8qcML/VJsBQ9if+MAmuBFhKkOAZ7iJfTLMgk6Ys1hJQGMtJi+HpGTwwRcXuSIxEY/P51R5u9EY14y1iTqB/EHeAAHqAAYgoKXOICeu2+//fa+b2icy6zB9WZLW1nl5G81j+DcaTSavC0iJz4yKkhETmx3Lrf0lO4V0BdIc5QbCL0lQcRJw/70nOhCETn5spEOs68n3qVL1UYsIzMl/UpEGffZSNL0Fp8Q+xYvohFnYUzB4UT4ES/Bp00LoYvQNzgmzBY+g3UQS5GT/9bd7lzwXDxxZ1hJytrCTHXyY885l8tMSpwA7+VFeCkfMNLSBGjbTK7mZ31yskWrQbbziJK4aJ5iDjHC4Yu39iuJX123lh1hOVGZQ3KGt/rF4W9yAF5JE86wX9A3R3bC8d8YFkb3gzrU1fYTWc6JTrrb516wfO97d3AgHiscDIR5ACd5AL9Do1Y0evmOiJL8IJtlTP92Lja2jCZNV8fxi/FQQWGkLA+O8uLIZ2jE6ZfHHsk0J5sGQb77leRfaNJydRwy8ikOjKlmzi+i12gF6leSD0WU0VEthKnzxLW+obHnMcY30abl2ng8mcClaqydviC3ezgR/dfXcf5LtAKR6UDfUOJHfUryj/1K4tU+Obkxoox/mfZ+V8erkGLeYsJI5S2h37taKCcKt3Rf/NO8CB/kAPoFJ6I/cCD+Opkx8yL8GQ+GF68O4Zs4Eb2ZEqW4VgIXYFzixHO7K406vJCX4j9UF/wA/NBE7HEeoKsmcejWrRyA6QfwLneJmWNpeAku4QA67RaBLZcDwLU5SuCS2zEuIcsR6rKEAzXVspCO5Rl/2SWK5lAM0kQJsLF4ItoYYQGIy9vO4bKdZ7C3uQd7g0exJ3gEe5uOoxyUcMetvBh/Ya7A8LVFcWnLP7GnoRMv3nFo1uEJdo+5Q1WbpeBF9L25AMPXHsXephOzAGSE0nB4snx3f4IX4T/8AP6JF1FVqTC6yKZEhbvtfnHkExyAw+4GAnFZ6ykqEASOp+GwakG8CNNGduqCp4TqXT0K40S4yc0wOEHB3mC3IQxv4zFcFjqDfW3nMInLA/O+SB20CLCxUlA+V7iqT5MTxiWciM67FQjXPog9ga4MMDpxaes72Nchp1mA5ecAaIw0ZTRSFSROhRj/tuWHcGxomr0m+zqUjDCIReQMQvsMZOlehHUFEdwsE15Ev3MnEKgOYfWddVnraazvF5wqv19CW830yvvvnDAo+NoHsXoQ8wfpnaBTD2s1HdIXzIKxqze35klrFUbnNvboHYXkCRy9rH9wT/AoLm09hX1tA/kXwEAYTkTY0zjTkZeFzhakLNcdJ5Y4KjJtYsv2Rm/xBLqu6YFow2TmW747UhAx9FbECTFcvjtc8IpBBjnL9kZvo9Ux53hkV6881Pv3xTs6J7XiZzv3Nh7HXK4jGgNr0INwQ5hsMeQstFkCfgneQ2at6gMDhMt2nlZnvWTmqx6kiTBYiiCwPIHDBa+txYJD3FyJg5+ZpvZ+x7jEL6KNZHvT9AEBwmR5gvQhZLartxpP4EhRmi/TcufF+uIv2BM8210EhupZnn3Mn+mBSRtOFvC0UOYTELKctKAOL8wmr+XfyNg6k9hWrpXv6VPnBN7gEXV5wsq9cz0u8ROwLLrRDaq3eV5M2bq1zWEwzxjpa+k68R7kReI4Nq/EM+zfODCESRNsWQ8BtVkS3ijylEcIg0EAlO3qxYt3dOLFDYcsz6k4CYWNNKa+zocu3spPrWJarxE3oEV5GmZWiy0PSkAsd+93vxRfZdk0b0AQ0xoQCNqRIg/omy5OhLm/H0L8W6cLw77RrC1frj1K3XJwACapmyajiDxAJxmImf7T25w+l+LaLS2aKkY6U1/nBRhnQGaAlDafTGuyyEoEtT4SOkAtvFFEN7l0Uj94HvuwUp2XCtcxSA3EkU0rToTvu0EIt5RBvydP5iS0ZfMD9F2jik99fU775DpsKfqdR7JgSguDF+F/HNkX4UUE6DOdaWup7hFiuGLnAK5odf7wtykWxKIrN9ng0g55vc0nqfMgr+ZRW0G2iJwUX08lroXaWBEawCvq9uOqxxpxdW0gP8eaAF75VAdeUu/cdi3xUNECsbT7CWBZNp2pf+Pbh77iJJDK1nO46omW/EDIALeqNoiXvnqCuiYbPStxwtbCIH7AHKUTh0+MHaQWnCaiT0JdRgW1dB0gtdbmzSoyAFHzWhtUm0VLZdVaPICYOGtogRDHOpr0OBH+j/wDBY3O1HEqQKyCJnOzOJWB3oJZhh768i0HqQTM9AxEfC0MsjWtuplqoRmccyLcQi20lYi8hA5kKqyVa0tf6S4akPs3AVtAplZ3019RsOBG1L06FL7Zis7UccnrwbnOSZZu67INZP1mAf/6pf34gbVBW2mQDt5K5SFxy3a9m24ZxDmj8RiVAzYvIiXvztfqi/zmL2waPrhdIPWhHjw5idXPmcgI/v66ZstQLAEBmV9XIJNCyqZKqZTgV6lrey4ROTFeTSY5VmsbiW8HCIGh/4QH3sc/eMIaFFogvvYB7Mn0ukKgC/tolkkE1Jl3y9AD5MRhj53myyqQTDCm4ViFYgaEE+RZXjHTHTnZA6HwkL/mF9Gz9/T0FOffWcn/FaqvdllowqwAyQbDDhQjIKTWlzb3TG3LZni/0Nt0HHNClvUqACc5gPZUdsBv6CtuUcI+KfZ1XkSv8AC9Z9aM0QKhgWEVSiYgxAFc3R/PAIIMbdXRlNEbVAAOkCGtXzj/taIIb5opxiUEDifB1ZyEHifvp+uP5XX79urnB/qwFRhWoKzcEBrhQfxF7VG28+wub9OJ7llHy4luri36hjYuefeFeGz6JbSy4q/KjfGHMlVrAk/pAWjDL752cFrj1Pf4B1fxaPJKKkxOBmOJtDAJHOyWzUZex00r1XyLYAbkQOdAmtAExobNAh5QRtOur3umA7/Tez7t2qUrEwyI1QplBmTL9oOp+cY0DGJBeiC1T+/BD/20KQ3KoWMKA+I0ECL+pi378PbgMfzjjaGUwJmAkLhk1v7S64fw1jcO4wfNl/JZk6UHZmYh2v5Ee24ERBuH4pwBYUD0CrgszCyEAUn1Q9W1AdZk6esDsxC9IkUOMyBFBqDPngHRK1LkMANSZAD67BkQvSJFDlfXNDxJMYHTjozU89PhkdS6FdnKfWSDLb8uNsrS81+1pmGtHSB1297CVyc+VKEIB8KzgNGlGdyvL8+8D1fV1t9NJ95s99KH17fgnzy5yyaMAK6qCT477wFkEqCqtuFtu1Ds3ldV03B55aMtefqvkUxPOYeurX6s4c7qmsCgXXEt31cTmKhaE3TP/yC6kdWKx5tur64NbK2qDVy0LLCR/67+ek1gYlXNDkCaSTdq4NoyrXz0zUUEkNNHXV2ds3/04loFWcGYAkwBpgBTgCnAFGAKMAWYAkwBpgBTgCnAFGAKzBsF/g+5hGNLVgFRrQAAAABJRU5ErkJggg==;" vertex="1" parent="1">
          <mxGeometry x="-180" y="550" width="100" height="100" as="geometry" />
        </mxCell>
        <mxCell id="9x1tPgVooMuBBy_g9e1C-35" style="edgeStyle=orthogonalEdgeStyle;rounded=0;orthogonalLoop=1;jettySize=auto;html=1;entryX=0;entryY=0.5;entryDx=0;entryDy=0;" edge="1" parent="1" source="9x1tPgVooMuBBy_g9e1C-8" target="9x1tPgVooMuBBy_g9e1C-9">
          <mxGeometry relative="1" as="geometry" />
        </mxCell>
        <mxCell id="9x1tPgVooMuBBy_g9e1C-39" style="edgeStyle=orthogonalEdgeStyle;rounded=0;orthogonalLoop=1;jettySize=auto;html=1;" edge="1" parent="1" source="9x1tPgVooMuBBy_g9e1C-8" target="9x1tPgVooMuBBy_g9e1C-3">
          <mxGeometry relative="1" as="geometry">
            <Array as="points">
              <mxPoint x="80" y="390" />
              <mxPoint x="860" y="390" />
              <mxPoint x="860" y="-60" />
            </Array>
          </mxGeometry>
        </mxCell>
        <mxCell id="9x1tPgVooMuBBy_g9e1C-8" value="" style="shape=image;verticalLabelPosition=bottom;labelBackgroundColor=default;verticalAlign=top;aspect=fixed;imageAspect=0;image=data:image/png,iVBORw0KGgoAAAANSUhEUgAAAGQAAABkCAYAAABw4pVUAAAAAXNSR0IArs4c6QAABVRJREFUeAHtnMtuFEcUhnmTABMHOyTBxgZLlqUsPJHGxswIA5KzMFaIJRxFCrGF40DsEEKCeAUuGy7yjoQVC8giioVYIBQJeA7nDVzRafSPjoamTF16arr9I7Wqu7rrnP98p0+1p2eoPXv4jwRIgARIgARIgARIgARIgARIgARIgARIgARIgARIgARIgARIgARIgASiEZhY/P7Xwfr0Vq3/sPlg38HgbWTypPnxxeso23DjRLAeianWf3h7qH58a+Lc0pVo4IowNHb6q6cxkqBtHJk6FSUZktSRxkyUhGh947NnN4tgGWxTKkOE7us7ZJrr18z5J/9EAxmrQmLZkdiaa79nsUrMPVkpgxPT/4k4ERor8F6301r/Lau4oXpzK/iOjm2g1j+8LQk5/9dmlpDQ6eHgWL2wxIpt0Zq3ab+4Dn04xjQqsYqN2sDwdmyewfYQHO5qOcZ+1VodG+IOBhjbAIQBvhaNvqq0OjbEHZtnsD0IA3QtGn1VaXVsiDsYYGwDEAboWjT6qtLq2BB3bJ7B9iAM0LVo9FWl1bEh7mCAsQ1AGKDjLxMcV6ktZUKqlIDOWJiQSO+yOsH6HpcyIZyyYj8UHO11PkP0XeR7J/bqOB0b4nbEVfzlEAaIWjT6qtLq2BB38YQdPUAYoGvR6KtKq2ND3I64ir8cwgCdz5DimVs9dCYEialiW8oKcU2EfL3q+3Vt8NjGjNOb6VImxHXKCqmwbo8tZUK06Peplm5DhSYfvzo2jLfO5ylOyjeE+CZNgq1yhejYJG6ZalMwt/rEHefb4k7zGZ9qrNZqhZPipBbns58KaohfHWcK5lafWpzPfueU52IjBCqmHBd/edda4aQ4mSeyW30hCYmlMQVzq89YgfnYYUJyUuMDMtYYJoQJeeuTfQ6StF2x7nYfO6yQnNz7gIw1hglhQjhl2aqJFcIKYYWwQnKqwNZlAxb73Lv+r2BsPy72bGySnHMRH3qtvH/CcwOtfvUfat9nfBLoNqc+QVRpjI1NknNVgusTSxLoNqc+QVRpjI1NknMhv/woW2L0V7hZ3I2Z3vsKFw/XssH10asTgriTVIHNKYT5BFjmMYjbxibJOQiLCVdWhOj79KhZ2PjjrU/Grn6+3niQ2Wpdvh5sS/tG3Emg25xCmBYbuj998Ur2eWP/gUFzbOXn9qIELnblP/dPrayb/R8NZbaOX7oanJBSTllatAtAfe3q81em/s1y+0OgrKMy2po1x364bOZv3zeLDx+Z7x5vmpVn/2ab7Evf/K172TVy7d4PP2uP/+LbC2b1+cvghMjNB524EW03a5JzEKaFYj+0lelm7NSc2Vv7pA0X/nZqZczY6TNmYePPNsRQPeITNuA/CXSbUwjTQrEfq136+5mZu3HHNJZ+MqPNWXPo84YZGBk3MqXJJvvSN9r60kwur5m5m3eNjInlH3Z09SNuG5sk5yAMouUY+1VuEXcS6DanEAb4TIiNVhfOMSFdgOziYjclhM8QLhzgUhtvrt1NFaKfj4jbnVjBIyBsNzzUmRBOWe7lxApxZ1boCCakULzuxmX5bUkKFlCWX4EgSfrPRHnGyDHO7dR2jsUzyqd18WvTdWT6zWrb8jJTrqt9PNJ7y8TKWugiThYX9oFVxjHNtatZQnpyIWVZblsSIq/IJSmolDKC3kmzVIYkQ2KVmOuLy7+4zyldGCEL04vAmJvvcht5UN/1i8cQvT27GD/yLZUiJYylx0OClbExf5GY94tHH30Sm8TYs5WBZLAlARIgARIgARIgARIgARIgARIgARIgARIgARIgARIgARIgARIgARIoGYH/Ab8rlF4sn+g/AAAAAElFTkSuQmCC;" vertex="1" parent="1">
          <mxGeometry x="30" y="550" width="100" height="100" as="geometry" />
        </mxCell>
        <mxCell id="9x1tPgVooMuBBy_g9e1C-40" style="edgeStyle=orthogonalEdgeStyle;rounded=0;orthogonalLoop=1;jettySize=auto;html=1;entryX=0;entryY=0.5;entryDx=0;entryDy=0;" edge="1" parent="1" source="9x1tPgVooMuBBy_g9e1C-9" target="9x1tPgVooMuBBy_g9e1C-10">
          <mxGeometry relative="1" as="geometry" />
        </mxCell>
        <mxCell id="9x1tPgVooMuBBy_g9e1C-9" value="" style="shape=image;verticalLabelPosition=bottom;labelBackgroundColor=default;verticalAlign=top;aspect=fixed;imageAspect=0;image=data:image/png,iVBORw0KGgoAAAANSUhEUgAAAGQAAABkCAYAAABw4pVUAAAAAXNSR0IArs4c6QAACFhJREFUeAHtXUcILTUUPRbs2Bd+e8GFHVRU3NhABXtDUVEQC9j+QkFUbKgoom5UUBSUb8eGDRQb9sW3bVyIX8VesIsdyzswAyE/905u3kxm3rwEHm8mc2eSe84kk9zcJEAJBYGCQEGgIFAQKAgUBAoCw0BgewAXAlgE4GkA9wO4BsBeAJYfRhbnIxe7TEB/EcB/yu8DAEfPBxz9ankqgL8UInyS7gawcr9ZHm/qZxqIcIl5EMAy44WlH81YTf2dSAjJObufbI831eenIIOE/ABg7fHCk1cztqbcKsg/fhnA9QAebihFZxiyzSpufwDnAjhvgD9+S9c36NOqKJu2Pgn1Ob8rbtgVwK+CPJvGMWFZAI8Kz6jTHcL/jwAOilGobZk7BXBYMkLhSkH+45BwIO544f4hkODn4U8AhwR06DTqKQGg64RUDxbk/xDk/eibhPt9MIZyTlIO9ZXo8vweASB+M0JhoSD/TUg4EHe7cP9QCAjlIyspVwsAsRnMb4Yb2JL6RJB/1RVUjmeREJKUjZQ9BICZCX7ArwDAaoolQyKDspcoJLiXJEK+APBMT79XFAzcEpOFFLZ6PozMkJs595gZ3dBFXTmWCGF8X2FTg/5ZSOFHywXYenytAclZJ4TYZCHljkRSfpmY5VeZM0JICo2wnba+OMZxXyIpp8whIVlIoUnjNAA/GYn5FsA6kaTMWpV1bwMWnZcU4rpGRQzNIR8B+A3AZ5O4L5XM3TxSQvjB50ip9l3NQkoI340VW9Y/AGjGbwqzVkJICINkMqqJIimHVbJZ/9jfqDPh/y8GwGa0FmaVEOo0SFJWBPCeQsrJGhsAZpmQwZJygEIIvzd0gpB+Pwv3kigpsNRxVPI15blueu9OOqq3AVhPeqAXr3UMacV2n83jfwUd6hqjl+qr7TENjZCmqqIGwv9nSY7pI2mE+M+MPaf1exuP+E5PN6taX7EZbJKTCGH/SBoUa3omrx8TgUIXhDDtWyLSblXk4oaiGwNYLSMRsuaUadAo2hRoxa7z0eY/fRWyhpUALGlJGYkQKvRWYhpsiu8QiUhqGhqBL0Sm3arYjg0dRi3D7jWNEDpi8OPqyjcdczznHIOmKWk05aEXQqjzqpVDAL01mn5sKYUU0Qip09g34vlMn9+NTQxk1KLUIzYNV8/HBZ16I6RWKOafwKcQEvPsvmQuFXQqhPTESCGkJ+ClZAshEjI9xRdCegJeSjYbIXRc2KdqtdDzhKaAaacepH7UV0tsAbmtoZRjupM2OZJ3SshyE3efkybN2DeFlsPnE1IuqwaxpDdGi08hhJ07az8k1JJLjeOIKF9MKXRGCO1TbwtE+MrQj0rLpJT5FEK66EX7+jSdc7R0BUGpTgjZGgDdQZsy5l6nmflwIZNStJWQaW1Zbn6nPZbMMK0TslZl80/JMMc/tpPQD8RbCZnW2puik3SPNL7SOiGckCNlIib+9QDwUpSVED4ndTwkJu+xMpy2IYVWCaH7DgdTtIx9FzFKdtRkTvvmET9OEg2lRaKkwBHDswDQodsfvev6nH4CFynfD+a5VUJOFAAiaLTnb1GhxLr8BkU2BLIlTiNEImoo8a0SwlGtEHCfTuYWrh7Q+DFBPvQMS1whpAL7CQFgyfHtWEHeAn5IthBSESK98dJ48HGFkKXqjV6rLGkwJvTWW+JKCal4PkF54znAsmUlx77KjYqsBfyQbCGkAprN3t8bgI5p9h4Z0eRlszi12WtxlGuzKfzGBBu6z0pmE8LYapXFB3IGVOitjY3jOHlsYEkIPVcrIUPoGN6lKNg6IexjvC8AFQLPjaPpZFsls/4lKyFDMp0s8JWpzlsnhM/dCsDXRlJS5kVYCZlL42JNPF1nWGe6JUA65rjI3vWNhn8rIXz0EMzvHG6QviOdlJAaU9qNaE6hDSfk5c2ZVHQhDfXi62do/ymEdOHEJr1ooXgOUGkvX6eEuGBuUC16ScczDmWyWps2pBDCNFOd2FKGbd17DgTAJr8WshGiZSL1WiohqenluK8QkgNlQxqFEANYOUQLITlQNqRRCDGAlUN0cITQiY2OdG7rRDpOnY7QJrB0VjgiMr+9O8pZFd8JwFeRnclQG7+OY+srR+B4jnXOYm+OclZAck1ps+ZLkqctykpG/cJkd5STlNDic0z61NK3Xpt2XbBsjnJWxSifa1p0St6ke3afsmrN5ignKaDF51w4QMuH5RrtdC8lkpLNUc6iUC2be2mNOt02/mkU5ZrE70Q63WV3lLMqOcbFZ6wY+PK99kPGuDyTD7D1vDdCxrqAmZUAX75zQmj/5/YTz1aLJ3OoliNmWgdQ8nT0M1/M7z4iyjnnD9LkIa1pVXeS/H+6Ca2rPNe9VAhx0VCO6d3xQGKTcNaXiVVgibrUSZVFvyP/zY85H8NCylGoK0KtE0LLZwz4koy010hIh1JlhVBx4th75dq8Etgx8VwLfSPnmdphIURDB8CeChm0jF5eeZzQt1abKz7L21VMu00GfYlDL27SakCWDV3YHJb2EBn7hi4hwJvikgiRtjx6SChZ87jlURPw0vUkQsqmYOHqRgLZEv+k8FKr0WXbvO4IuUBFXrjImyTW/T1ud1PW6mVJiwls1T2ipCnlZdbiuZhCzCLOS2HGZTE0ZblhFld6IIjaBsbWrVf3qybks1Exph9XSuJQMS0fyeG5BlI0wnjt+4g1pZIzN4837mzc2N4nyN8zdx4xbF3n0xNLCQ2S064y17oyY3kgTe8c+/BLgHR+qzKraCyY9K4HPRHZoZFIYDwniHIadAkZEeDM2vMnc88XAeDmYNyt7KoJWdyqlesyllAQKAgUBAoCBYGCQEGgIFAQGBgC/wPGdHiXiFiUCAAAAABJRU5ErkJggg==;" vertex="1" parent="1">
          <mxGeometry x="240" y="550" width="100" height="100" as="geometry" />
        </mxCell>
        <mxCell id="9x1tPgVooMuBBy_g9e1C-10" value="" style="shape=image;verticalLabelPosition=bottom;labelBackgroundColor=default;verticalAlign=top;aspect=fixed;imageAspect=0;image=data:image/png,iVBORw0KGgoAAAANSUhEUgAAAGQAAABkCAYAAABw4pVUAAAAAXNSR0IArs4c6QAAFBVJREFUeAHtnXtwVNd9x2nTJu20M+m0f3TSadqMm2ma9J9kYjsYTMBJ3UnaMQZsoRcgbBmwAQsESKKJ7RhT2wIDdpzaQYiXA+YhngIZ8zAS5o1Y7XullYRxMG8DEhK6jwVJ387v7v6Ws3fvvXtXWmRJrGa+c+6u9p5z7+9zfr9zzu/euztkSPovbYG0BdIWSFsgbYF7ZAEAX2u+jR/VhzA2GEIGKSBKRkYgIq+MDCu5ZGTYkUNGxr2WnePgz1idE597tAwho0HFfwaAv005kqCM4UEFwQYVYNWrAClAUgB/RD4FIHkFeRTAIwNuQS4ZYDllQFSdDGiSgDoJcCTQaQnQK9E+9H+qW1OkPfEYaJuPj0o+djoPTcL58TmzDagkm0Rso9aH8OuUQWlS8UBQwS0GQaVdGBoIHQzxJEUD2IGgN3pPXxvBEuGIxyUeL0Oh0gwKwWEwDCVirxdSAiWo4u0ewxB6Fp0En5x4wiIIvaHMDF4rAT2RUX36NpMBo4dCUUHvLQzFr+JsqoDsYyBJeYYAg0FQGQfDIBzpDWdl/FMSYCWrffXtiHASgWFvsRPCGEoz8I1eQ2kIYXXSYSoBDLPxQTSQ3pBxRu8ATiUjAZy+bnotth0HRjfGcAdjKFYhjMOXX8G1XsOgChpkDAso6LYzgOsHbz5wK684LXXj03bZUPvaWvHxzZawWlvwcWsLqts6UNMu31WbjBqbOtQmI6r28PanbTLMdLhNxvH2kDap4MGfz4XPjUoGow9huvD1WkqAUCX1Kl4IKAiR6zFxboxnU4lg6L2iqvUKXgiuxWO18zHiZBEePVGER4+HNdJZgsd8JRhF8pZglKcEI90lGOkqxkhnMX5aV4yfOoox4nQxRtQWY8SpIjwq1DH8WBGGH52HYUfmYdjheRj26Tw8cmgeHqmZh0eq52LowbkY+slcDD0wFz/ZPxc/2TcHD++dg4c/noOH98zBQx/NwUNVc/DQ7kI8uKsQj+9bgIX+A6i91anN/hgKlQwmAZQPaoA/SxkQqiig4J/8KqYHFLzuV1HqVbDCq+BLAmIXBoeCbdfP4XHny2GDniqKAhlxogijfPPxWGA+HvP3HyAPVhaCNPnYCjg6usJTcmE81EFxeWQscZONVMwIdOCHKQVhVVlDO/7Oo+AjclXuIXxw3IvYMxjGqY4uPOVbfLeHC0BGuUvwWH3/BUJQlgSPmIYwp4K9KfcEKwBG/3O04JtOCV8QkEQwaODcdP2z2JDDQE4W4WfkGf0cyNjqJdGFqn5cccsYZ2SjPn/PLeE1OzAIyLsXTxgCGVFbhJ8RjH4OZOjuIm1Gxh4vQnFJeK7PjW/UoFvCNAJiFqZ4SknTy6Xnj5gAKR4QQChs8fnEQZHwR4+K7xnZqE/fc8lYZgdGb4D8wvsyxgfeQE79YmRHlBVYjCw/aRGyfBF5FyHLswiZmkqR6SlFprsU411hZThLoamuFBmOiE6XIuN0KZ6uLcXo4wsxfF9xzCyLB3UuxXWLAZROt4wGlwxHjFQ4aLz1Kngl0HYPEo5M3Kngn10S2giIfgCnnkSzEldrCwJXzqLhog+rz1Ql7SG/9L+CyY1LMblxGSYH7yqvYRmiql+GPFIgrEmBZZjkXxqWbykmRTTRuxSaPEsxkeVeigkkF2kJcuoWY/je4ui0l0FwSUAMoQhRgkM4T3ZoJspLBJ+K1oCCR9mGKStdHfhhnQJf1DuENEjwUj2u1y3Hnf3TgD25UTlqFyUNJDu4KAyjj4BMcC7Bfx9ZYAqEsgYilDgviYARocQtGlW0+mR82xYMAH/qkzHOr6Dcr6KC5FVR4SHJqHDK2OaSUeuU0BWFQR4iAb7rV3HzxGLgo1xD9QTIpKYlfQ5k3Ik3zIFQysbMSyilbwCEPIWgRL0knIh8PSEQF/A3PgWf0oo8bjWuW2/oYTReDIQ9wgQGQao7tjBpD5nU2L+AnIzk0EQv0cJzJEJQx2TbWHmJR8buhEB8KnaI6REmKq7GuRFulA6g/spZdH38DFCVayl/xcRBA4S9RD+eiFNhshHZKzqWkKdExhOfiq2WQAIh/Dvnq5LxDs/NNtzeP8MSBIMaLEDYS/RQjMYT7sActhiIV8VMSyD1CvKNgJh5B8+qrrrWArtzbcm/eeB7yIkOgIDoocStT3SzrhgvkXHGA/xVQiCG4UpwOaIdDVXkfi0t6P4ozxSGui4L1998Cpd+NQYXS57EylWTB3zIIiAxUHSzLh5PxNAleolLhser4gFLGPRPCln6wTyRd5xrPADsyjWUVJ6pQSAQrMEA5HgECEPRLpSZzbpknHDK+J1TRqlbwgKPhCeSSkD6VWyj8UMczNnV9N5BPaD1xBJgV06c7lRk4WLJaFwojtXKlQPfQwgIQxFDlzjrqu1At6MDeQm9INEHHMA3vTJqokDMwlVkiicfnA9U5sSp7d2ncaFodJwGGxALL6lIZGvb/48sDMe6FZTRQpDkisgZXhhWOCVUOCRU3KnKV42A3CgdhwvzRsdpZfnA95BjEQ+x8hKHjALbBk/lB7EzuxU7c6BXy5JxOD/3iTiVr8gb8IP6sVsAQxEH+JixRMbiVNrZdl1mQJRVmThf+EScyssGF5A4L7k747rulPAPtg2Zqg+aAcGOHFz73zGDEshR8pBb4YE9DkjH3cRjbQcuOiS8UCdjaJ2EH4vySvixqICK79JQ0Wsu2J7dSsY3UvfWbLQsGhcDZTB4CANJGLYi93vR6t1sTSImHL0KvvDJGBsDhdzMJ2OuV8FyGtRJLkF1EspOC+qsnBwygiG+17kpC3L5eHS8n4GGDROw68AUTZX7p6ByX0T7p2B3zdSwqqdiN+lgWDWHClBzaFZYNbNQY6XqWaiJqgA11QWoOXhX1QcLEKdPClAt6kAB9u+bie2V+di+M16XHB/gc38VXFfOadPfOC+5G7ail3utgHAqRUtXyej0qXhcg+JVkOOVIdOUV38nCa3OOVVCxDlN0LnrOWB7zn2rtuoF8Fz6PHblLoQtXrVrXiJkOWhNp89tcf7Qr+DoEJ+MYT4Zd/TrD17yp4GYd7quyjw0fXYyCiVmtiVctCMv4bQTA9GgcPY3csnDL0Ma4lewh1foidIl7CG0Mu2sfA7YlnPfq3vHJPgvNFomHBMBIWcgBn4F54d4JbTZAUIw0kCMO6C8dx5O3eoM3wRukNvSjyOckhIH9giQhRSyOsyAsJvRGBIHZOdzwNactCI2aDxbF/YSG0A4bOmAVH0O/MUQumybEIgQD2mw0kJWGkhMZ7x5qLTh5C2U1Up3xbNSmqHWCTNWmr3yTNatYpFXxS+jU16viv/yyujWZljK3UuORDHqIUZAdjwHbMlJ664NDkaN2tsNv4xij4wuGtQ5vhkB4Smv5iFpILrOmO3qLYeY/en2ea+Md+lObo+EAy4JB+p0Oi3hAOmkhAN3tubdQUU20mIbZKYWSAwdGy+wObM1DYNhUPlVA9mU2YrN2UgrYoNNaSD9qjN0bZkYOK3iATO5FHznOPCXNoJPzz4C8pBN2UgrbANpz/yYdQhNfDifFV0YSrjjkrHbEcK/9czqFnulgcR2Rj0QnpHSgjoKhJ82k9BGN6xbmDf5f2lANmYDaWk2ICD65GKchwi3lzpl1Jlana5aeRVUeWRInH6ndQivRQzT71vzBw2MznVZaF/2NK69NhZXXh6Dy7/uuS69monPy1+B+9y5mJDFi2yyKa/1nCH8IA6KBkNGe9Lp90ECRCkbj8svjdXusKS7LFOl8288A+eNW9End42AxKRMmExAQRXnsuykTzg2dm7JBzZkD2iFysfj0v88iUvz743qTxwMA4mkoTjqaNdCyFMk/Ig5REt/JNvLUEzTJ7qM72AAcvU3Y6O3uvItr6ksg3s2xg/oHLIkNBve3OBTcINgiEDsjCOdFfnAh9kDVqEVmXF3V4p3XF5+aRyuL87GtTezcHH+GMvPivuJ28GPNsQB0cYPCbc9Cn4e9QpxIyBhJd9ozSHrfgBy650MXJg7Ok6XSsZAWj8NqJ4XVfeBOWh7f3L4bkyDfYzqofeCVWEg4vjhomczFYwUGcRs06O6PhlN7CEaFHYrYaZFldJ8mi9UdW7OB9ZnD1i1LX4q5jYlurnvwpzRCG2bAVTPNVR7+bNx+xjdFMjvnVlS+Aeniv8guRSMqlPx3Rjjm72gB0i8ChZ6FBz1qnC4FXjdMtrJvXgg0oAIUAY8kLfigbS8kwtUF5rrYCEuvxx7vxkb37CcM/pVM5sn/X4A+LpbRolTgmq0HunclA+syx6wMvIQZdMUoHq2pW7+30T7XpJKIEzQ6OszKGwNRiCh7TR2zLJU+4q8rxYIgD+JfGWEdkmXV+1hIDnAuh7oD1lAT0Ve2dN9hf2MPERalw9UF1iq5e3crxYIeYq7Axs5bPHgjsrZwK7CHmo2sG06sD7XvnEpRFbOCre3cxZAkwrBwMluGwG59uZ4oPpFU3Xtn4GLJfE3khuOH/QEwL0IWQREu6QrzLjIS7BzNlBZ2DvtKADW5QIfZFlr8xTjdiqmWe9nUW/bYuPB+dbqPKBmZryqZ+D6W8aPWvQpELeKf3VFBnbRS1IChIBWTLU2KgEjbzSDv36C9f4mUDqWxc+y2LAtb2fh9q4pQM10oHo61C35uLrwafuhip+PSbWH1Ev4lkfBac5OilPglAGhef/aLHNtmGwOgyBtfNZ8X4t675SNT2hgWtydnxP/8BGDS1j2BggN3j4JD/oUTPCqmOpR8ZZHwQ3xfl9el9A4kjIgW6dbG/TDPGsgG56x3t8CyrXfJDEecK9Pojy7/NWdLglT6Uv9bT2fzlNbek69XoWLv81BTKWYpVOwYzaws7D32vAssCbLXGuzgR2zjNuh9z/IMd/Xqt41WehckYlLRaMTekpCTzCBVO84EX30wE03I6qooKed2e6GJX0NbEDFNf0XJpslHNlLUgKEBuUERtP+vz4Pce1Rh/hwsr39Ldqg0HX1V0+mHMrZZfPg6egMA4l9/v9oBfA1Qxj0Zn0Iq2K+Ulz3pcnkIUZeEmcgK28h422dCWyZHtbmacC6PGB1ln19MAGg/agOKul1Mvsn+KzyztNoWTgO114Zgy9ffjJpXVmQhc/eewmfLX8NjXsq4GkLRb2Dwj7ZkDt5QEGuKZAGFVdigAi/C8IViFB4gLcNhIy3JjulxksliFTVJW8v0RbONPFhG1HWnGEwEBoOvAo2mANRoMb9CoLOSzgTLA7w2D4b2FFoLfKKBD1zsPyfgPAslIAYwSA7EpCAgr2mQIIKfAyEPcXo13NEL6HGbAHZMAVYlXVfSN4WBmLkHRxpCIYGRMZvzYGomBVM8JNGXKEIxRaQjVPvCxjU6QiIEQwxVGlAZHQFblvck0U/+hWUscsQiknookZsAdlWAKzOAVZmDXoxEKtQ5Ze1n/8oMvUO/ocGRcWsegXeBgUhq9DF4wm2zQa2FybWlpnA2knAyuxBDYWAmMKQIfll1ARU/IJtnvISW2d12wJiB5rVZwj8lheB9VPCUMuzgH6pr/ru974CIsIiMCtzgPLM/ijzW0NT7g4GFWLLzFCfeIgIhLY3TQdWZPZDZewxMFPfvYWNz5/XxhEKKX0t8pL+B2VR31nfoCWsn/p2n4Ng8GsmAWWZ/UsrMh8yMFPfvYWKjK9j80zlK4GyamL/glE2vqrvLG/REtblj9FmW9xz+6LcUgAsz+xPuozy3H+0MFPf/gvrpzyPihe7sJUyun2gNXn9CUYT3sv8ft9a3EZrWD/tB/jweQ8qCrrvGRTyjNWTgd9n9gd9ifczF+C9jL+2YZ5785HIan50QMWSBhVlpIAoBWXB9o5VV2u3H7558Pfejr3Lmljt+5aeaa9+/3rL4dVIVjcOr8GXxzfhvHM/vnB/gnNJivaxo/PuT0C64Pi45crxipNXj2w4rNcFR9X+PzbVba+XOlf4FZSxAopmi98FVEy7J7+jrkfaFML3GxX4Kd8l5rw4xaK/2shZTU5KcrpFTE5qaQbh2gEn5jiFLZZ0Db+3EusTt7ldLjn9IV7H4AQhnw+fH13y1jLjwk+bB1W0NoSQo7dhyl6fkfHtRhVXGiMwEkIRLnDxgfOJMBAutesruq8VZMNQKRouVdti/bzNnYOPh4/PDASdF8PgX9Kmki9j1CvobgjhqZRBECtqDGEdwWAxEDNPSdZb6KTZEFHDGHgOG88uKPHzRtvRtiLtixDsgCDPYBgMgkrBPpfPp/qLAqjCRhUyw+BSaNQ6hFl4S0KviXgOG87IqMm8x/VopdAJkgIRCVEMQvQKHQwGM1rs3L3eDqr4XlMIIDEMLu1AiXqLARhye4bCpd449DrqPbzNl0ftlrxfpDRqg9vnkkNtNDQZjBWiVxjBIDsFQyjuNQSxggYF32EgXDIQrcFYF43GUD5YsSfx4Cfe+8UnzoYQSyPD6d+LgyXcbqP/rP612BZv8/FYgUjkFaJ9mtQUfzE/3c3YHMIFhsGl2GhvwNiFwwbTG9Xua95fX4oAeFsbrA08Qg/CzCtibHMbqc9vNYcwvzkSthgIlTEN6zyFwxl7CpdmHsNGYKOIpd6IvXkt1ituc/vsxeJx9gQE2adZxVHq0GLEScm2A/jz5hD2EZR7AYZOmA0RNYxwLV80XKq2xXaibQuzJgbCHYlL7mhiqe+YWme9jSvNKv4lJQCMKqHnDZtDeL1ZxS07UIzCGJ0En5hY8slzKRpI2+Y5f6RMBkqM4bkeoQNwm2IpHhtviwB4Ww8i8rqrOYQdtHYzsmPK36PvlT1zB8OaQhjXHEKGXsEQMnqjQAgZSUtGRoDVk/17ecx0vmSHRgU/P9uBv0+50dMVpi2QtkDaAmkLpC1g0wL/DyCPtWwDdf8CAAAAAElFTkSuQmCC;" vertex="1" parent="1">
          <mxGeometry x="430" y="550" width="100" height="100" as="geometry" />
        </mxCell>
        <mxCell id="9x1tPgVooMuBBy_g9e1C-38" style="edgeStyle=orthogonalEdgeStyle;rounded=0;orthogonalLoop=1;jettySize=auto;html=1;" edge="1" parent="1" source="9x1tPgVooMuBBy_g9e1C-11" target="9x1tPgVooMuBBy_g9e1C-25">
          <mxGeometry relative="1" as="geometry">
            <Array as="points">
              <mxPoint x="-20" y="820" />
              <mxPoint x="-20" y="710" />
              <mxPoint x="290" y="710" />
            </Array>
          </mxGeometry>
        </mxCell>
        <mxCell id="9x1tPgVooMuBBy_g9e1C-11" value="" style="shape=image;verticalLabelPosition=bottom;labelBackgroundColor=default;verticalAlign=top;aspect=fixed;imageAspect=0;image=https://upload.wikimedia.org/wikipedia/commons/thumb/1/18/Ipfs-logo-1024-ice-text.png/768px-Ipfs-logo-1024-ice-text.png;" vertex="1" parent="1">
          <mxGeometry x="-180" y="770" width="100" height="100" as="geometry" />
        </mxCell>
        <mxCell id="9x1tPgVooMuBBy_g9e1C-12" value="" style="shape=image;verticalLabelPosition=bottom;labelBackgroundColor=default;verticalAlign=top;aspect=fixed;imageAspect=0;image=data:image/png,iVBORw0KGgoAAAANSUhEUgAAAGQAAABkCAYAAABw4pVUAAAAAXNSR0IArs4c6QAADU9JREFUeAHtXetz1cYVd7729aGdth867fdMp/9Ap+8pbadTMgZKSQq2dB1CCXSmnUKSwpWEIWDjXdmUV8rbgA3tkGSwsU1sCGCbhzGGYCBgzNM2GGxj46SlTdOmbPPTRcmtRnd3dSXdK4M8c0fSSt7H76ezj7PnHBUUxH8xAjECMQIxAjECMQIxAjECMQIxAjECMQIZEShasvIbJRr9saqb8xTdNBK6WZHQycZine7CD+dIwz08g2cTycqvZ8wwviGPQNFC+llVIz8DwKphdqo6eaDqlGX3Iw8+zuukRaBh/hR5y9fkCX5yZumaL6g6KUkkzcOKTv6dHfhi0pB3sU4OJQyaQJlPMOTuTU/o5PuKRnarOvlnWCRkylfR6D/Q3SlJ83vutXuCUkuS5nfwpmYCK+fpGj2mGnRyQQF76gmioaAgJRH0TM4BlxyDFIN2qTr57mNPSvGisi9hJqTq5GFUyfi0XuShqtGdRaX0K48lMRisVY2Mf9pg8eAbkWfvJwxTeWxImVe6/nOKTmuCBLdkSSVbWLWJaeuq2Yotuxnd/rr1wznScA/PBFlmQqc7Jvx0WdWrvlWs08t+gEkYJkuurWbV9QfYka5u1nO9nw2PjrPR8fe5Pzxz6Ua/9T/V9S1WHsjLV110eknRV35zQkpLQqM/UnT6t2wAAHCvbqplbx07xQbujnCBFxGTfh957T/ayZZtrGUJI7suU9Hpe6pGfzChSFENMl3Ryb+8kjFn2SpLEq72DwZGQjoh6edX+m+z6roWhjK91tNqm2ZOnRCkJHRztqqTj7w0EqDsbjrE+u8Mh05EOik4R5m1jW9nQQzaSEoiTYqqmYVeyaio3sNyIRFOIpzX12/dYWt313mSFkWj/0VvEElSUmOGfDf12/J17Og7F3IuEU4inNftZ86z+eXr5InR6AeRG1Mwm1I18r5sN4UB+8btO5EjwyYH0oKBX7Y9GOgjM/vCOsPL1Hbb3mY2MvZeZMmwSRkZG2eb39zvgRRyMRLrFKgXZN4kTDN37z/si4jLd2+wup5GturUWvZKa5KVNP+GzWiYyQrrp1k/nCPtlbak9UxdTxPrHbrhq8zXW9qlp8jQWOd1PLHUIRIKO5DR0HYyK2B67l5jW8/uZLNb5rJf7C3M6je75UW2tXsnu3z3elZ1aGjtkCYlb2qW2Yv/9FVZ3dSeA22egTh7+11WdoKyZ+qmZkWCG3mT66awZHsp6+rv9lyfvza3ynZf9/OikJTtqrbufctT428MD1hETN47JTAi3MhZdnwFQ1n2mCFzlB9TzOqcdl3YK5BRoS/buMvTAN7U28J+1fDrUIlIJwdjTlPvAWlSMNAv3SAz+yIPseeTI1LYU4om3lzCOkN2ajs0NsZo56qcEZFOCs4rO1cz1EFGSjAlllqnGGZnTghRNfJzmVmV7KJvcGyELWrT80aGTc5LrYvYrdEhKVLaTp+XGk8UjfwkdFIUgx4VEVK18w2pht0eHWa/O7Qg72TYpGAqfe++3BoJezAiHFSjoi1UQtAviioBReG1AfEqHF1EFCTDJgNjV9eA/OwL+rcXlspoikPcm0+Z6vD3EXY1HZKSjnyOGTYJ9tErGfZYU9NwUCwlGqkNRUpgUAYbJp6EQDpkVOj7ew9GppvKlgyQgraK9lOAWcnLFZ8PnBTFoM/zyMC97fvEU0jM/XM5tbWlwO34bOMs9s4tfxpnbHKJcFF1ogZOCMw7eQVj21VmX6PsBImEdPiRDLvLwrG377ZQraLo9GCghKQMn+mHPEKWb9olHDvODJxnYa/A3STBmRYUGTYxwsWiRj8MVBMMK3QeGbgHgwS7gpmOpceW5106vJJxdbhP2K6m9k5xt2WYkwKTEsslgKPVRXclsg6B1hbKPefbmstrr2ScH+xhs5pUBrV/ppcM6RjcxSZGZnlghKT8MzJPd2E3xasw7m05u2PCkTGzSbHqXN1dK2zf4jXb+FJikI6ACLF0V3/ndVkysys/+xl+pSgbybDJQNlzWuYJCRHNtmCjFohVPVzCeGTgXmvXOW6FsWvnF9Rs/98vGXa5op3HI6e6+RKiU1acrPqabylJ+fRl7q5ACMw7eV3W3p6GvBASFBkgpf5yE7eNF6/3iQkxKn7omxA4T/IkBEbNIltb7IHbb5qX47T6Gaz1+nGWbF/i+f+DJAN1Xt21nkvI0Oh9CQNvc65vQlIerZklZEHlRm5FITnQonohAs+CjOM3O628h8ZGPZESNBmoDxShvF4A9/5gbuBKSUI3tQAIoZQnIcZrO4QVTTS/4ImQdDJsEGRJCYMMEAJrFrsumY5wheBhheWDb0JUg27gFbJ8s3iF/mzjTGlC3MiwARCREhYZIOS5xiIhITAA5GGlGPQ1/4RopJZXCDZqbMAyHQvrfylFCI8MO+9MpIRJBggprJ8ubCfdvodPiE5rJgwhU+qns46+08JGg5i7Y/csYzgAhZ9XrS1MjJ5rKpJ6SewyokNIDrus6nPiFbFTUsKWDJuQyHRZip7bQb32/F+kpMSWlAuDl6Wfz0YybEIiM6jnY9rrRVJsiREdoShMV4fYQMseIzPtlVkYYlHEAySbhWGQpPglA6SJFobD97AwFDmVBrAwlFGdwNuVR0i2qpMgSAmCDBAiUp28e+0md4aFmWpxEKoTGeUi3JV5hPhRLvohJSgyQMiVIf5G1eFcKRehMlY0ylW/w4ecRwjuwSVAtr92Prf9nHjx6Sw/SDLmtMwXtm9bXTNXQgJTv2Mhg+BfvMWhzAYVfDycQHu59kJKkGSgjjJSumjNVi4hCY2e8L0otDMIYgsXzjJ+t3BlSAmaDPinCLdwB4dyvIUrYeSACAnObsN5vfTYCl9SgreVR0rQZKC8V4+XC9vV2CY2csDkyH7BfR/nlJZ+RtX4ZkDwBXES4LyGUVoQZkBupIRBBuqKxaSzHc7rpRtquN0VsAOGvolIz0AU+Q1+hAhX4ays87r8hOlbSpySEgYZKIOcrBK254qMoVySHEjHMpBzGQdPRN1xEuC8vjl8y/KcRYP9/iApYZEB76qbw+IXDG7evAkP7oXiCCptbD0odnrZ3/u2bzJsMqftmxFYXnaeODb2NgtfLhlja4S3DcXYGmKG6J2itwGBXJxS4XYNN7J0AKJ0DlWPW52daTv3id0RELwtkC7KLROEUhURAvP8qwPi8EpDY/fZ4gi4sjlfhJdbF0v5G8LIWsZhB5FX3bAMLE3RaLuIlModci5tg6MjkXJp+/2hhQx1ckqC2zWp5u8OpjAiRwIDPlNGMobXqAyi6rg1xJkGp88oSAokAz6Pzvq5XcMwUPRSWveDNLDORAjSU3FtM5sGoTJwHYYLsVuDnGnwN8znmIIxA12os15u1/CfnF+2VkyIRk7yMAz0HvpFucABtQzO9m4Nc0uDEz+mm85+PaxrWMNgxudWF7e0VOAAwSLQ8hIgDxPJym8HCrooM1Wj22XEFuEo3BqXKa1v5I61GeRX78UjEStwxFHBmihTPdzSN77RJJYMEKJVbBHhF/h9RKlWdToqQwoCt7g1kJcWZvCZ0wN843C3eiG0lExbFY2MJRaVfTlwwGUyxApUppJWeKbWDs+kABhoWrd111guAby3nncP+xnw8RBZsLsRgbR9rR1SZACLhE5nyWAX2jOyXRcqu6NBvJGVCRSkXxm6aW2lrj61nv2xTbNiaGEcgCEefjiHHwoMErAHjm1X0U4frzzcQwAzmZfOeiYfXZWTWTgzJnR6SbbSGFO8DPQiwMK6jzpKjxk6ZYpGLgSu0XWCLXuNAJBWxGeOH2I6YfBalZ0ShwU4L19MbZf+WWY29Wjqr5HxIq3iaVm8cvIcQqWqCJkqSQrm8oiqwwMmH/ew6JNaZ9jt1OgHkf06j6JVPqNo9D+ypOA5BFKW2UcJmxxI7KqaN+XHC4sQ8pFikGk5eeOzLSS1b+It1DiUdAjk0i+hug+amL7BIQatrYyi8P9fNCvUePAhM7IFnvd/qmZO9dJ92Q2FphjerNCkBg28Mz/s9GFzyTsRWPghmrVZyMMgcvcwpngZ6G1ScMS6BQM/IiTIRBdygp3pGnkhT+yBo4z0MqXPNTIe2TFD9BakZl/konRj7YEy7YgICXDKhyEaXI/h7SqyJQYheAbmnbAoxP/CbiprEh7VB1PbyM2mRCQ47z8KXCOl95IlDp6/cLC0Pnm0edcnnzyCex3SFpgbJAyfvUlIsW5ujcw6wwlyNtdQs0DPIwt6hJ4bzbs6JBvAZf7n+dKqLyb0itXWdzfSuqUIgZ82rjzmn81LJwz7KYpGTkWTCMyiyMmc72ekA5Svc4sY3WyIDDGffHo1X4hEpFwrdLlGakVBNsMhjjyAqU7o1iERwdpTNWBQhoCRiFGYzVfeZAlD3kqSHMBEAx+k8VTJJ/Vhy8DbMCepulmuGqQj228igiTrf5GHQctUw5z0WE1f8/mCIN4UPj6W0MiLCOSiGnSl9bFjRJvADz71Bl35sYIzqermXDwbSIyqfDY6LjtGIEYgRiBGIEYgRiBGIEYgRiBGIEYgZAT+B2AqkH7nn9BRAAAAAElFTkSuQmCC;" vertex="1" parent="1">
          <mxGeometry x="700" y="550" width="100" height="100" as="geometry" />
        </mxCell>
        <mxCell id="9x1tPgVooMuBBy_g9e1C-13" value="" style="shape=image;verticalLabelPosition=bottom;labelBackgroundColor=default;verticalAlign=top;aspect=fixed;imageAspect=0;image=data:image/png,iVBORw0KGgoAAAANSUhEUgAAAGQAAABkCAYAAABw4pVUAAAAAXNSR0IArs4c6QAAE8VJREFUeAHtnXlwFFd+x9mUk9jZzSabbFXibCqbSmr/2VTlqM06tnfLwiDAgDksaQ5hwBzmMDYGYw5zSiAQ9w3C4rDXxgflS9jGFoc5JcxhTp0zmlvHSELSSJrunrNff1NvRj2ao3s0Gs1IwqOp+tT0dL/369bv2793d2vYsKHPkAeGPDDkgSEPDHlgyANDHhjywJAHhjww5IEhDwx5IBke2KfDzw9a+UMFVnKvsJFUxUtBA7m/s04o2lpPCvvIyh0W/DYZf+ugt7nPitGHrV7PsUaCRLG/gWBLXd842MCTg3XCyUHvwERe4K46/F2h1es50sgj0eyo57G5Ln4ONRC800hQYOUvJvJvHtS29taT44VWHslgXwOP/Nr4edtK8F5jiomy38rr327gkQz21/PYVBs/hVaC403dohxIhUjZV+e2FjR4kQx21fHYaImfI1aCD5vCRKn/kRdfe2rd1oP1XiSa/fVebLJ4kdcHjlh5nGiOFOW9RrcGjHYuOIo+BoxzwclhmQsuCKf5RTjqngDwZwNS1+yudVv313mQSHbXebDR4sV6c984auXxSTORFOWLJgYCo4XA1EBgdV3oIbAiBghsF5wBAmcMAM6EEBxmIIAFcFgAzmIEZ3m+30XZWeu27q3zoCe2WjzYaPYizxSdDSYPck3ehHDMyuOzByRGUaSE6asoJgKnZXq/irLd4rbuqfUgGnlmL3JM/c87jTyKHpCoonweiBQxWkRhxEih37FEikSU+CLF5ABX+0/9JspWi9u6q9YNOfLNHqwzegeEdxt5fNlCYhRFE1SEJVgUp3l1/wliclt3WtyQI9fowdoB4k+NPL5uITGLQhhRFDFawuuWuCMlOaMFwK0/h6PuV3DV/JvIVrOneYfFDTlyjB6sMQwM71t5fNtKYhelkUFCRAlU8LQYswBOyzcJjRCwpv8WONPnhDVwAm1xiGUqq8e+Wie2md2yrDe6sdrgGRCoIKdbSa9E+SwgihgtYvFFo0WsV2KIlIAovlbX5oQJAtY4jbBGt7/ZFyoGvcC9tQ5sNbtk2WJ2+SJkld6D/uZ4I4+zraTfRAlpCnNdlTxndsNV95uECALO8HvCGvhAGzwQGVQY/92yx8xhi8kVlc0mF3IMbqzSubGyH/nAyuO7NhKnKPau4is8UsKihPpEro/iixLT4oSIQY0InPFU98kio4N2qKgg1OG9Id/kwiajC+sMbrylSx5UkPNtJPmiSHYczS1gTS8lTAza9SeswSFXVPl7tzXYbeZAHRwvuQY3VtRI81aNG6t1bqzVu3yRJZdObv+HVh4X20ifRPm0UYwU2vLSQmBrQDgdIzD6Lwmr30tYwxYfDsMWQuEM6+EwKoDKnyVMDGoIMD0aiI5AUSWGK63ganzDDrtMnO9up3d8PGw0+p29vMaNcNYb3AGbNN1afWSa8DzBv6kgl20kYaIQu0Ygdt0OtGj+OqHOjtUY4YzN4a0qf92h848BMVrsMHHIMzr7xBqdE8u0rhBoVITb3WB0YkVNaLrwfMG/36334IqNJEYUqx2ErV4aq++Sko4whkPBTdyAGL7ooCGswXYTiw0GZ59YVePCUm0o6/TSNldKpA3PK/7O0TlRaiMJE2VXrWdgZx7h0P6KsIYHflFocdXVc6UjpIzW1wrZbmSx3uCMm1yDE8s0LrwZxhqdS9Lmcm1k2vC84u8XfujEyWbPj0wUTv87wujrA9ERJAZhqrHN2LcIoXf8Ek0ky7R+kYOjj0YNdbZUeql9E2924Lnr7fim2ZtQUbab3cVJKZJiNYoHlT8Dq1sssDWnCKO9RRhNF9W3thsZF73Le8taPa03nHijWp6lGidouhy9E6t1TizRyKeVsjP5h078oaQNz161YWEFgwMmFw5b/BRaXDhkcaGgiwMWF/ZbXNhrdmGP2YVdJhd2mlzYbnRhm9GFLUYX8ikGFzYYXHizyjMtVv/1a7qFVa6iRVVODEYyb3Xij6VtSWHcDZumXx0d68moIK9XOTEYmXmfxTOlbUlh9DUbE6uP+jXdwnJX0cJKJwYr4290IO2qLeGMvt7u6FdHx3qyBeWOotcqHRisvFLhwISbHRh+1ZZQBrUgr1Y4MNiZdZ9D9h0Gitv2hPDyvQ4nYau2EbtmBSisTmQa7NV/H+sNnfB0NEIWVDiQauTXdIA2+7sntMR5Ez0Iq7eD1c9IuLNjMTiv3FH0SrkDqcYmLRWkSlIQ2mcjjF4Ap5sUiw8TmmZeOVM0v5xDqrFR2w5ip4JU+4aQxJFg/2gGHdUwgLC66oQ6OxZj8+4xRfPLOKQaGzXdggSKLTrG5xte8gtCRaHDT7H4MWFpqCDzyjikGpKCBFZBitMUBsBliG36ls53wGF8AqzxP3tahwpY/wqdVU962ar0bsrSvR1l6csrOkvn3ueQauT5IqQyej3CGjrpSp0e7344TCpwxlY6KU8noQhr1MJhfkoqI+y62YSp7vC1KGiZaa8EsVeA2MtBOstwQPcAc+5zKccGUZCQeiS4yKIVuzFPyqch++CyjAJnEsQVEuKsIHEY7XCa/jU4MRhdln9BssbfxJMUpBkv32dTjvUaW9fNGV6x+5cLEdZwPNbouA26RKVrBbcoiD9SDEeDBSFMjUGc95CLkP26Zsy+x6YcudWhgtCKnTBaDbFr3wdbkx7sx6jb4MwuOUF41nBdzAzUPeafN/dPRMkJsk/XhFn32JQjWBCBqfwMnCa+BdXgzBZpQQwQGGNgDSqAnxBW2yEbIZ20DrmPfTVNmHmXTTlyqroipKOyrKdGkXiTS37DYVkhJwhY/XPBmQir3dyTIHtrmjDjLptyrBMF6azq20I4AI+ANX8UXIfQ1Yng9GuCxaDbgO4vBVbzlb98rPb3TMVWVleE7NE24aU7TMqxtrKtq1KvXhLut7h+g7WMBGfOA2dcS/si0YzwnHYcYavzCVP9Ad9Z0eJr9gYJMv0Og1RjjSgIU3kbuPhINP8l9Rg6yn4h2Ms+Ffshu7VNmHabSTlWV4gRUgWBqf4Czsp/SarjoxmnRRnpLKugHcPd2uaUE4PegMGC+FqgtNlr1zbSrgJhdAbC6A2EMXbDmfQ8ZywBZ16NdtPfRvNvXMd4e8UcKsgubTOm3mZSjnBB6KJBXyc6MLjYPcAY3Nfz193GRnC1/xuX4+UyeTvKR1NBdmqa8OIte8qxqqJVoqceOnQSWPUp9biCw9wM1vgPcv7t9X7CVCwQBZlyy45UY6UoSJRJKp8gQY8qiC1b3zd9doQ17+y146UyoOn+T3l7hZ4KsqO6Cdk/2FOOt8pphPjHsQLzIRLD777F6l0REiEIZ9ZJ+bdX+8BVPS4wlafFEd/t1U1Q/2BPOVZICSIxQSUtSOBxN2fA+WjT/bzr/R0HCGcsDMAYC4kPfSFharrQFhKm+rBg13zD26uY4CH47dWNUN3sTDlWlHVHSHeFHlyHRD4Y2h0h4ksGTPU+QcCaxoAzt4gJglsBgYoo8MRp97Mg/h576JzItupGKG92phzLqSA91R+yzx92CeK0HBkGzvw/vhFfWqkEvUSlWxTxWUJxGjJckNAhlK1VjVDc6Ew5lt2ngkgvA/I/KUAfBu1+IDTY110vqrHDafz1MDhMXwXeXCM5LyIKQr+pKOLja9LD8FSQrBudP2rmnWtA3olKHCq8gff3XvFRVHgZ/NnvwJfdgGCr8j/iF+iD9FhctcNpHuEvrpyWjuiCGENeDBAQJey5EF8Lw16JLVVNyLzR+aMi63onVn2uRfGGU7DOOARPxvboqHbBu+ZP4L88B6GZiiMKEvZKJ9bYAM54AI76f+6uzDkz43vdg/imgT4WW5srm5BxvWNAeeF6ByZcbce4UhvGlrRjfKkNk661R72mSd93p3+uxAbK2Cs25B27De28o/BkbI0Lt2K71zv/wKeet7/4L3RYfhEAdY8FRAjegKP2YuyCRBZbtEXhLztp5V6FgRZk8rUOnzPHlNgQzvir0qI8f7U9Iu2sr0y48/p78GRsTgjujHy7JyN/MXJzo79ZDpx5HDizkKhiiwrywrWOAWNsSRvGXJFn4tX2kGujv8PTbz58DZ3qbfBkbko47sxNp5Gd+8vgoIjYhsO8DJyZdIvS/cq6yNaWXJT4IyW/sgn0Lh0IJn7fjtFX2qIyttQWcm20aArOc3jXOXiy8uDNTB585ga9a3Lev0cIEbyDvuEHDtNeOM3F4MznRATOeC4Aqz/HM/prdDW3XOW+qaIJk77vGBDGl7Zj1OW2qIy+Ygu5NvpbzHNsxxl4M3NjZ8Y28G8UgF91DPyig/BO2RRzXj4jx4iMTY8HaxD3Nn3ok3C6AqnHojdVNILeqQPBuNJ2pF9uiwoVIPjaRl2x+dLnF5bCk5UDb+Y6ebJywG88DnL+NtDJIuLDEwiGBpAPzsE7e5u8HfEcGevuYEbuo3ELEZyRrkLhWcPl4H4JreA3ljf6Wji0ldPf0Mo5/VJrVJ670hZyXfT3jJM62NXr4c1cIwu/9iiEmroIDWR3uD3gc9+RtSeei89cfSjYr33aBqN/PbzoyitvAnXMQDGmpA0jL7VKQqOHFmsh11Zqw61Fh+DNXCVN1mqQ46cBQZD1vdQBcvYmvFmrpW0GncuTuUrwZq0Z3ichxMxgdSsDgnS9fIYKQpuXA0apv9U04lIrRlzsJv1yK2iRFn5d+e9egzfrLWkUK0Eu3pLyd9R9pPh7eBUrpW1KnStzxV0MG/YT0a9xfdOVjIQxWPyCdA+p+AShf/gAQ53/3BWbr0k7tsSG8b4OYuh1PV9ig+6VHfBmLZeEfHwmquOlDpLiq/AqVkjakzsP3c8rlk+MU4iLj4DT/45n9TcDQwJBI8FUEOqMh4Gln5SBz1oqCVlX0OtiSiguBa9YJmnPdx56TPb4kjMxCQKH6UkwppPgjDY6QtndLwke4xL7JnrkVVBBbA8Fp9Z/AD5rSSSKNyHUWKQCQHafUFwCXvFmpC3RPrVZXAKy5ZhkGm/mEh6KZf8YVRRwljngTHzwUtNQUboGzXyDZ/7h+Q3lTaBFxMNAw8xc8FmLIyCbCmUdL3VAKL4CXvFGhJ2AbcUboGnoR9Cao6RbLP++FDCW/wBn8UTvvdPRy1BRHhZBphdTx7wuiXD+mpTfJff5xVgkacdnX7EoIIZogH9tg3T6jNePyEYIHJa9IYOOshNYoaKsL2/yDe6JI6aD9XvVhzfBK16LRLkQ6GRE30X9Foovg1cujLQh2lUuBE0T/iGHT8jkefWqvCBOy2m/IPTFv4FJeJlZxW5R1pc1YYyvdUNbOIOXvQWnwSsWRDJrWbj/JH8LxZfAK1+NzC/aVL4KmkbqI3xHK//Ic3sVC6zygrDmj7sFiV2Uh0WQo7tPglfMj4AszZPyYcg+4VwJeOUrEXkD9pSvQPj2Qkie4B/CD/cl83oV8zl5QZyWqf7I6PqHJPSd5TFESm5ZU8joafBIarK2R15uw/ALLUj7rgVp52PjyLZPQRRzI1mzNdh3EdtC8QUQ5bzIfKIt5TzQNNE+wt0Kyfy8Yo5XXhD63AhnLA0VRVyuErogIrjllVvW3K+CpF1owR/OPeg1e3YVgShejuSNdbK+FIrPgyjnROYR7SjngKbp6SNcvCppg8+abZMVhB6AzfA3YC0n/BNYYqREFyXnfnNgOFsc1k7W9/ALrXj67IO4yCk4C6KYFcnU+QBPInzqF2N2ZHrRhnJ2TGJQw8JnX0va8SpmxvZWOvp4NBzmzJB/dhX4x1eh/xxr5vWWu8kSINzu02db8NTZB3Ex86M7IMqXJIHBFCKIUHwORDVDMq3PhmoGaJpYP8KGrZK2BOVLX0aNkHgOpl+yFfU0J5GI43RE96kzzXGT9m0DnNkzQZTTIhA++iTgW+HcBRDV9Ig0gXyq6RCKzwbS97jBciDZVNzI8xLl9LXx+DxqnpGXbO+NvESHwJMLHcl98kxzn7i5OAdE+WIkcxcAbrfP0UQ1NfK4mEc1tXdi0OLqq1Oy9qCe+nRU58ZzMP1Syxy5+YhE76fF1f+dbo6bLbu/AFFmSyKszwNRTZE85sujmgKhuJejwSwLMmuOpE1eqa7rcUVKPII89X3dYyMutep88xF0TiKJPHO+BU8UN8dN+kkTHNk0AlS9Q6WGUHy6x9IpPIFQUBDlPOr8ePwdU55Rlx/8ZsTFVk3wBFGytv/4XQt+X9wcNydyDkJQKmJHpQSKvw33dc+/vzklew6iyHJCrY7vzQ8xKTJs2DDFJ/iLZy+0THn2Quu+Zy+1FSaTtPNtHz99tvnGU6cfVPWWyZ9X17BTsomgzESPqLLiFONrCGoquvQ5iCozcf+TKlaBBnM6qDIWC6oXEBV1BnD6m54jITgFy0Ao2B/VLlFNNmPa6J8OZv/0+7XRylRQTioWVJMgi3oyhG0bAa0m2OXS2ywDfF0EYfaL8vZUk0CUEz1QT0p8y6rfPZiEEyJ7wi+J6nmNoJqAHlk0F8LRAuDCWeDWDeDebeDSeeDzExDy1kCYMrlnG6oJgPL5+Un4U348JjFl3K+JapxRUI1HsoFqfP/9+9WHWSJMHfM4UYy9I6jGIhkQ1VgvlOOGIqM3NwlmDH8U6lGHoBojQDUGiWOUGerRQ3VGb8QITgvl6GegSr8L9Sj0EQeyR28eak0FezfObbqiEOpnJ0KdfgbqETzUI9EL6qEemQ/F8OjLe+K8tpTPRh0Lddo0qIYfgTrtKlRpTVClsVClEaiG25CdpoH6mZNQp62FesTT8YxN/T+HnHSolGPsWAAAAABJRU5ErkJggg==;" vertex="1" parent="1">
          <mxGeometry x="700" y="750" width="100" height="100" as="geometry" />
        </mxCell>
        <mxCell id="9x1tPgVooMuBBy_g9e1C-15" value="&lt;font style=&quot;font-size: 18px;&quot;&gt;&lt;b&gt;Signup using&lt;/b&gt;&lt;/font&gt;&lt;div&gt;&lt;font style=&quot;font-size: 18px;&quot;&gt;&lt;b&gt;&amp;nbsp;mobile&lt;/b&gt;&lt;/font&gt;&lt;/div&gt;" style="text;html=1;align=center;verticalAlign=middle;resizable=0;points=[];autosize=1;strokeColor=none;fillColor=none;" vertex="1" parent="1">
          <mxGeometry x="-180" y="230" width="140" height="60" as="geometry" />
        </mxCell>
        <mxCell id="9x1tPgVooMuBBy_g9e1C-16" value="&lt;span style=&quot;font-size: 18px;&quot;&gt;&lt;b&gt;Provide your basic&amp;nbsp;&lt;/b&gt;&lt;/span&gt;&lt;div&gt;&lt;span style=&quot;font-size: 18px;&quot;&gt;&lt;b&gt;information&lt;/b&gt;&lt;/span&gt;&lt;/div&gt;" style="text;html=1;align=center;verticalAlign=middle;resizable=0;points=[];autosize=1;strokeColor=none;fillColor=none;" vertex="1" parent="1">
          <mxGeometry x="185" y="240" width="190" height="60" as="geometry" />
        </mxCell>
        <mxCell id="9x1tPgVooMuBBy_g9e1C-27" style="edgeStyle=orthogonalEdgeStyle;rounded=0;orthogonalLoop=1;jettySize=auto;html=1;" edge="1" parent="1" source="9x1tPgVooMuBBy_g9e1C-17" target="9x1tPgVooMuBBy_g9e1C-2">
          <mxGeometry relative="1" as="geometry" />
        </mxCell>
        <mxCell id="9x1tPgVooMuBBy_g9e1C-17" value="" style="shape=image;verticalLabelPosition=bottom;labelBackgroundColor=default;verticalAlign=top;aspect=fixed;imageAspect=0;image=data:image/png,iVBORw0KGgoAAAANSUhEUgAAAGQAAABkCAYAAABw4pVUAAAAAXNSR0IArs4c6QAAD1hJREFUeAHtnQl0FEUax78k5IDc4QiSBINyB5CAchMgIiAYwEDkCCECAhpgOcINisZFEU8E5VwOgayCKCBPEZdjUXAFL1QW0QVWBLxFUcTV1c/826me6p7umUkyJzP9Xr3q6amurvr/6ug6myh4BBUIKhBUIKiAixQIIaKWRFRMRBuI6CARHSeiE0R0jIheIaIlZb8LiKimi54Z9MZAgQQimmkRnonIGfN/InqZiG4iIoAMHi5QoIolN5x3EoIZqDeIqJ0LwhPQXqQT0SEjEE0aJPHkMS150b1ZvHnFjbyztB+vW3QDL5jTgYfe3JAT4yONwCDHzCeisIBWtYKRb0NEX8swqkZV4WlFrfj4awXM5ybYNb98Mo53Pd2fszulGoHZQUTVKhiugLytLRFdkGEg1Z9+c4RdCGaQXtrYlxvUS9CD2UNEVQNS3XJGuh4RfSlghIWF8GMlWYYgfjp5h1JcFd+eybcPb8Yl09rx4ZcGGbr99tgYviErTQ+lNFjZ26eDCvx1Gcb2dTcZCrx1TR+ukxytF1j53aNLXT73zkib+349PU6pX4T/Fnus/SAF9r+TZLHMcsaGJT04NDTEEIa4Pz0tjj8/MsoGyqVTRdyudW353h+IqE5gy24c+3giUl9tUWcY1QmoR1C5C+EjI8I4L6e+8sbVJjNZvY7/+/W8ytAP5B7dW9hK4yAF9tXpQmQIblaB4y1LuEuIi+T3dg9VRf/97ASlHhH/wz66L1/9Xwa8cG5H1R8i+h8R1Q5s+W1j/5EQEqLL4snnLTNqqkI+dFcnG3eA0qxxddUN2iny/eIcRVdanRjVnaUXwDZUAXoFfVOqOPbaGTWrV1XdHdg+0FDs0fkZqht7cGeOb626szRAA1R+22hPFkDQAhep2MhGMSXcvvPKYEO3k0a3VN3g3MgfXPvXjjzVHRH9RkRxtkELzCtPCZHRHWIk4PkPx/Dgfg0Z7RLhFvBat6hlY2rVsOYivBovnt/F0M/fzoznpIQo1T8i6hqY8tvGGl3oijBmZf6j93SWhSvXOV6R0TA0Ap3ZzFonEdEI26AF5pV/CyCblt9oKNy84jblgiD8E/apNwoN/e3TPV32d4a/yR9LRIVEtJyINrnQ/CiEQ6+tUUqWgaRd3ZT7Fkx0aISfsM2AoBiU3M32JyA3E9EXUuDliLjsHF3ojoA0uzaLpz1Y6tDIYTUD0q2jpjcYPQV+cQwhot/lCLrrHOMZngTS6OpEOTEN9gcaaMGqRUpUVFUelD+MZ991D8+ZV+IS06lLV1WU/NxGHgNy4aOxHBEepj6biJr7A5C7RW6IjY3lvQcP8blvf3CpWbF2vSoK+pgwuKTPJXId4qoi65llvdTnEtH3RITeZp8/9gsg02bNdSkIAfbYyU85PCJCFQcjfZ4AMqS/pkLf4vMkLAH8WADJGzzUJUWUUVGXkmodPMKwqz0gyan1OKv3EIdGhBu2vlL/6EABh4eHqomAiHL9BcgpOWKeOsewqwxFLrIqEgY9EHTZS/584i/FFRKNV4BgDFxuXS9d0E0WsFznqLhRgQvAGG0MCbF2ZhLRaH/JHRogVzbP4iYdB7jR5HJomHXwCWPgGHaFkD//t4hnTbhWGYxC6nbWoOEHAAIGxk9iY6z1laWX16+mBak5pGD+Lp67/We3mm4F92hSP0YOMXYhBK2MDRh1U2Jl//E639Sfcocmh3gCyJxtP3Gj9v1k0ZQxcKNJC+WBg1yiyxnobs/zNxgeB4IcOGvL93xVZncNFLRPMOxa3tyCtykUb7o6AzD8qt6QE45HiyxRJM567gJfc32BBgreijDsipE+DC5hPMMol6ACR6MP9Yfu1Rb+XSSiAXIE/e3cK0AEmL6TVnFktXgbMICDwSWMsaMLHeJ37ZDCjesnGkEQ92OecGN/A6APr1eBAMzkp07zdTcVcVi4dfhWakMIse3ZJ4noNiIK1UfOH397HYjILVPWn+HuIxdwauO2mtdjEzjfEdFmIurvT40+ZxKIzwARYGBPe/pLLlywhzsOnC7nDMyWx5tTi8t5yYFPAhFw8Cou5RCE9bI/7ALpMvROjo6vyVExiW41eEbX/Hk2jdIgEKmlPvPZ8xwSoukxlVOry89DQsN45rPfaaAEgUhApv79c5eLLhU/hn7jmaK4gh0E4gSQ6OhofnLlat65Z3+FDO6FH0ZwgkCk7nekRjl12sshCYmJ/NyOneUeYXxh1x6uXqOGIQwA8kEgqUTUz9LO8cgLhWmlrgdSOHI0h4Za65TIyChevuYpp6HALe4ROQN+wU/x2weBYJm1CB/WRHqk4ek0kB2v7OV7FzzIkZHWFnVISAgXz5jlEErJfQ9oYIaHR/BdJfcx/JQi7Ws5BCt5f5XC55FumXIB2ff6m7x01VpOSNDMd+KhBYV8+svzNmA+/eo7HjF6rEb0uLg4fnzpSoZfPg4ERdT7EpB8T5RZ5QYCIUuf3cppdetqhO7Zuw+fOPuFCuXUZ19xTr+bNW7qpKTw+me2KDD8BMhaCcgjPgsEYm7fuZubX2Ndq4GAt8xszUeOn+Cj//mEr2vbTgOjSdMMfv7FXSoMPwEyQQLyT58GAkF37n2NO2VZZyYi8FempytGiojiBm5xj2y8VGQ1IaKNTm4s0EGKB1b0ur1ir1CRJYu69+BhHjJsuCY3SJHgAbcM5j0HDmlAiPu9AKRR2WjiWUv4kOKjHaR6j1fslQYixB0/qVjzJoU3sFtHjTEEIe7xApBH5cRi2X/L0RYcHq3YXQYEIpfct1BphaMljnMhvJntBSAocuSKGjkbOSXGTk6Be6wOwEri4XbcueQvlwKB8C/vO6AYMwjydS8AgWjlhYKdILDxgUcOlwORBXd07iUgEBZQ1umKL0c5JQjEzb29mNGorhC2wNnqEdXtPCRQc4iQBFBETsFMR68vnQ50IAADKMuIqJOg5E07CMSb6hs822kgvfrkcE7/XJca+ClXrD44HiJL1oyIsJJ3cdkeXCuI6H4iwuplR41L2Q+H504DkYVz17mLgdzgos3LWhPRq3bijH3A7iwDFOlQbSccmALBTPXY6nU0KdhOoCrtLq5GCs/ddkkzalmJtyy0G8RS72+J6DUiWmRp2GU4oYtwgi0C5TERe/HEVNZkcWNFbVMgGM4tWvq+Mj2nw4Cp7E6DKUBFyz7QwKjkJIduDhLPOSJ6gYga2hEO25kLqAqIzKbpPKGgJ0+/LYcH9mzLcTHWjXAsz3vbQavfzuP+/MsuEHmM3RvnlcghmGKKtYX2UjT+SzFRqK68fj8lOYn/sXY28/FSjTl/eBWPviVb/wzkxAoflysQIQiKLrzOTrQ0Ao9Kqf4z4cjAxmuwInTNpDg+uXuRBoQezORbe8tQUMRhckSFjssdiJEo+KpCLyIy22oDGwxgowFF5FXzx9iFATg/v7+O01M0W0Fhj8kKHYEIxJFQeKtSYFSNiuCL765xCARQ7izSDFdvd/QQs//tAhnx0Ks8ZcNZtbLF9NJhf92p/pbrleH371ZmrYtrmMGOa+K3bMMP+CWu4Rl4lvgt7ErUIWbxdeY65mEpQJo3THMKBoBsfnyiXGy95cyDjNyYAil8YC9HVI3lWunNFSgQsN412Yw5uP2L12rEG3L3C1wlIoqvqN+Kp5Z+poBJadSGw6pE8KC5WzRuB8wo5dCwcK6b0Ymnb/pacY/7wiOr8bD5L2vceglIXwEko0Gq00CeeewvMpA3jcR25pohkPGrjnNElHWbVUBJb2EdO8d68xEP7lfEG7v4LQWGiARAwIjfAAU3SPW4R16rDj/ht3CLZ+LZXs4h6i6qkRHhfOHt1U5BmTmmrxqPsp2HKry3iiEQCNJ50Gz5AZrzpp3zePbzP/4p3LZLypI0IarezuwxUm3wobHZIjtf45fsvn3uFBUGwuClHILORvVTGo/PLXQI5Md313CdWpq5anirq9BhCgSCtM8tthEvI2sQz9l6USMcWtitet1m4xbX9K1v3As/ZBA4x7NEzhC2l4BAyIdF+ND4+2DHQlMov3+4kUcM6CLH51Jlvo9lCkTUGSJgwhZ1ihANNipwuZgSbkWdIrtFHYPrwo2wUafM2PSNBooXgdSSc0lSfAyjjoD4chvkzP4lnNvjOn1cSiqUNSw3GQIxgyHEk6GYwRBuZShmMIRbPRQvAoE8ffT9WGhr5Od05DGDsvn69s04Ity6d4slDvsq28loCARLlaunNlLJN+82VLMAMyYxme9Y+p6Smif87WOOr2WdVnptn9sZRoiM/+AGuQT34F7xHxZ1wm/xG8/Es0WO8jIQQEH3OibIqWG0c/6SKyZDGAKBIBCmZt2mnNH5FrUCR0WP9YBjl7ytiga3EDyxdj1u1XPUn3WGpaKPr5nG41Yc07gFlNikK1hU4KhTWmQP46SUBjxx7SmNWw8BSSqb9IBi5j0i+smO4M5Akd2gY/LzslXDz5V9j7GHs8WYKRAIXbzxnE0FPnn9pxrRRGrGOnNNBb7tEivXpFVZwq3eD0DBs8T/wvYAkI7yJ5hcCEMGI85Xl31FLtwRGLtAhDDest0MBOs9sAGBEMwT9hNBIOYKvChghFUJ58yeI7nvlNWcN2ezS8zAWU9z91ELuUZaYxk0ijF8MtD0CNQcgnEQdfCpy7B5PPKRA24xhQv3KfWrgF82qrjUlIa85yKKB28VTWbPdWORpfZXVYur4RYQMuAOedPkXHI4CMRWAXx0QBGp9tUt3Q7kxqLFMhDsXmR6qEVW73FP8KhHDvqUQZiEcJbcrI8IBpvQGQiDj1aKA0sMxHWjLcZvFf5eUT/TA0CWOIqHCLd3tokVYpTTRuLRH/K3EeV5uWqPreVNSn9fEEg5xZdTlDgPLCAxMTEcn5DgUwZhkkAaAbnDkgPQnsC6QXGgmMI1GMw+0R8+m0OOiAgvXrZSXdIsNtL3tr3oyeUykHf0qlbit88CwReVlUhndc3ms99c8BkoCIv87REi2lAJAPpbfRZIjgACe+CgIXzoyFGvQ0EYsHpXDpulO1wvbEV/+ywQRGiXLuLszfpEV28IKOjaduXh00DQ/ax+a1APxwd+HyibKJ3oShpE5NNAEFdMpZ9KRCd8AIDIFQhLMRFFuBgGvPN5IHKc8aEwNKwwg88bBs929+e2/QqIDOdyPQ8C8TGyQSBBIOrIpFGPg4/J4/ng4JMWJ6rGVL94ZfOsH0Y+fOCEO03vcU+ciU5I/qVKRCRWbnlk3y3PSxp8YlCBoAIBoMAfkqB64tpEGBsAAAAASUVORK5CYII=;" vertex="1" parent="1">
          <mxGeometry x="40" y="150" width="100" height="100" as="geometry" />
        </mxCell>
        <mxCell id="9x1tPgVooMuBBy_g9e1C-18" value="&lt;span style=&quot;font-size: 18px;&quot;&gt;&lt;b&gt;Complete OTP&amp;nbsp;&lt;/b&gt;&lt;/span&gt;&lt;div&gt;&lt;span style=&quot;font-size: 18px;&quot;&gt;&lt;b&gt;verification&lt;/b&gt;&lt;/span&gt;&lt;/div&gt;" style="text;html=1;align=center;verticalAlign=middle;resizable=0;points=[];autosize=1;strokeColor=none;fillColor=none;" vertex="1" parent="1">
          <mxGeometry x="15" y="250" width="150" height="60" as="geometry" />
        </mxCell>
        <mxCell id="9x1tPgVooMuBBy_g9e1C-19" value="&lt;span style=&quot;font-size: 18px;&quot;&gt;Matching your&amp;nbsp;&lt;/span&gt;&lt;div&gt;&lt;span style=&quot;font-size: 18px;&quot;&gt;information with DB&lt;/span&gt;&lt;/div&gt;" style="text;html=1;align=center;verticalAlign=middle;resizable=0;points=[];autosize=1;strokeColor=none;fillColor=none;fontStyle=1" vertex="1" parent="1">
          <mxGeometry x="410" y="240" width="180" height="60" as="geometry" />
        </mxCell>
        <mxCell id="9x1tPgVooMuBBy_g9e1C-20" value="&lt;span style=&quot;font-size: 18px;&quot;&gt;Government NID&lt;/span&gt;&lt;div&gt;&lt;span style=&quot;font-size: 18px;&quot;&gt;Server&lt;/span&gt;&lt;/div&gt;" style="text;html=1;align=center;verticalAlign=middle;resizable=0;points=[];autosize=1;strokeColor=none;fillColor=none;fontStyle=1" vertex="1" parent="1">
          <mxGeometry x="120" y="-150" width="160" height="60" as="geometry" />
        </mxCell>
        <mxCell id="9x1tPgVooMuBBy_g9e1C-30" style="edgeStyle=orthogonalEdgeStyle;rounded=0;orthogonalLoop=1;jettySize=auto;html=1;exitX=0.445;exitY=1.046;exitDx=0;exitDy=0;exitPerimeter=0;" edge="1" parent="1" source="9x1tPgVooMuBBy_g9e1C-21" target="9x1tPgVooMuBBy_g9e1C-7">
          <mxGeometry relative="1" as="geometry">
            <Array as="points">
              <mxPoint x="690" y="330" />
              <mxPoint x="-130" y="330" />
            </Array>
          </mxGeometry>
        </mxCell>
        <mxCell id="9x1tPgVooMuBBy_g9e1C-21" value="&lt;span style=&quot;font-size: 18px;&quot;&gt;Preview according to&lt;/span&gt;&lt;div&gt;&lt;span style=&quot;font-size: 18px;&quot;&gt;NID&amp;nbsp;&lt;/span&gt;&lt;/div&gt;" style="text;html=1;align=center;verticalAlign=middle;resizable=0;points=[];autosize=1;strokeColor=none;fillColor=none;fontStyle=1" vertex="1" parent="1">
          <mxGeometry x="605" y="240" width="190" height="60" as="geometry" />
        </mxCell>
        <mxCell id="9x1tPgVooMuBBy_g9e1C-22" value="" style="shape=image;verticalLabelPosition=bottom;labelBackgroundColor=default;verticalAlign=top;aspect=fixed;imageAspect=0;image=data:image/png,iVBORw0KGgoAAAANSUhEUgAAAGQAAABkCAYAAABw4pVUAAAAAXNSR0IArs4c6QAACyRJREFUeAHtnNlvFEcex/shq+QP2EjIoBAuY2yDjQ3Y2GCOcMQQDBiMD3wJ8BHbQw6tYkVZrVtZ0LLsJpNsNiwE8JhjuZ2BOASIg4K4AtI+RCJ+yUOkaKU8gBQkpIgX8Gf5DV0db/d4sGe6Z5neRvqqqmuqPlXf369rZhjPlKb5//wI+BHwI+BHwI+AHwE/An4E/Aj4EfAj4EfAj4AfAT8CfgT8CPwfRGBMO1lpWwmkBehMSFsJjAmQ+b8KmWM+AnSODdAyJsDzSfXyYiPPpXXQkxZgMC0ADmlwzFa6Jwd4NllmXPIh8biT1s7SZPnQjGQ4lYj/4oxpZ3+yjLjpI62D20nZKS+0kzWug8FxHSAa28GttAB7x3WwJx7JWGEonrDHtzHN7aQ47UO8j+2ge1w795SXse00u+1De6GDwPh2iKiDW5rOMwlPqvPM+Ha+M7ltdCTMfALAFR+apo1v45Dy8UIbXU9YRuIPv9hG14Q2iKidnsSJjwkT2ulRXJnDKe5wHLd8TGwlpHxMbEMfbn7H2ie3oU9+FUSTWgk5BRaW4socTnGH43jFh5beip7eCoYcS0h6K6EhXNcT4hUfWmYr+rQWEGW22HdI+03SA9c5uPUGJ6LJeGyK9c4VluJmNDMwrZUToqktHMtopsbaf7TXmS3UCktxI3O47ENiNdp1jrp/djN6VjNEFCUhb1/m8DtXIZZ+f5VD1omzWgiZXMX/tXwwdRNp1jEjvc5pZWxWEw+H5bvkQ2I10jXG3W9GM/r0JhBlNdl3yI5LhP98CWJJ+lgXICzFjVZmNpFrHTPSaxkbjana3PIhsRrpGuPul7sFPXcLRLTZnpDdFwn/4yLEkvSxLiB3MyHFnbGF/pwmOnO2cF+15W6he+ZmdsQjGas4whS2zKHaZG7repzwIbGych2/ztuCnrcZDNmMHOknfORLiKl+e0LyNhMyuYaRvM3cNdt+nVPNHW95V4KSTB+OJ2EocM4m9NmbQJTfaL+zzp4n/Pk5iCXpM5QpdWEprswhbbM3cVe1OVhGEpJMH1avjl4XNqIXNIIh2w651Ef4ch/EkvSxLqqgkZDJbaC/sJHOOY3cV22zG+ie08iOeCRjFUeYwi5ooF+1ydzW9TjhQ2Jl5Tp+XdSIXtQAhmxGvj1N+NvT8ATZElLUQGgIV/F/LRvjf1EvaiQ3JrvBnhBHfCQjIfPq0efVg6g4ipEfejn8Qy/E1Kf2t73CUlxrWVzPg+IE3vbK2Hl1PLRy1bWLPtzfISX16CV1IFpQZ7+z/n2KKT+d5MBPJzkxjA5IH+vWFZbiltQxUFLHCUPHFtRSbe0/2uuSempK6jg2hCtzuOujPglPWYtr0RfVgmjxRntCRhso1V9YJrfWfSNe8aEtqUV/aSMYsr2GqACPtnxpIyHFlTlGO360/b3iQ1tWQ9cjEVG1cx+/L6umx+TWuP/x+7IadDXf8irndrqwFFfmGO2NMur+pdUEXq4GUWk1txYuTPwPVPnN/GZ5NQOKu7zG/T9QvVxFl5pvWbX9TcaoA2MMEJbiyhzxckY8rrSCzJVVDK6sgogq+W5lFftWVrEnTu1b+ZjxmCfsSvf/hLuimhblYUU191ZU0x3n+k3fwhCW4r5SRdOIA5tIx1WVdK+qBDe0spJ9iaxtpGNLK3h+1QbuuOHBYN5eVc1vR7qehPqVlvLs6g10r97A4OoN4JAGyyrZJ+yEFjeKwWUVLC3bwG2H1m/GwWAuGcVSnOm6tpJp6yroKF/P9vL17BCtreD78goQra3gqyHtXw1p/161y1hhCMuZVY2OIndxeQXNayvYNmRN8fiQMdvWbqApaTtjJFYrKgivXw+GXldj1q/nddUufVT701p6xYdWuY5w5Tow9MuGdfwsqlzHL0Pan/qEeMWHVlnOqepyiCXp87TuDLUur/jQNpZTU7uGB7VrIarW8KBuLVXK+NNaesVHJL6bykhrWEN+fRlH6tdARGUckTZ57GlNgnVdXvFh+mosI9i4GiIqI2g+kGIVr/jQtpQR3FwGIqmnWB7M5XrFh9a8imDTKhBJ3XSYYhWv+NBaVhFsfQVEUk+xPJjL9YoP7dVSgm0rQCR102GKVbziQwuUEgyUgqGUTYhXfGivLSf42ssQ0fLU3SFe8aG9vpzgG8tBJPUUe6Yyl+sVH9qbywj+bhmIpG46TLGKV3xoby0j+NZSiCiFE+IVH9rbSwi+vQQMpewO8YoP7Z0lBN95CSJakrpPWV7xoXUtJPiHxSCSeoq9dJjL9YoPTX+UBH0RRJTCCUl5H9sWM/bdReT/cRFH3l0Iokh9EfnymHnrPeUVT/jYVsLG7Qt4uH0BDKOH2xYk/uVpt3PpFR/a9hJO/akEYkn6uB3QRPle8aHtnE9453ww9MvO+fxsSOqq/an/koNXfGg7iwj/dR6I/lKM+TUgqat26ZPoHez2+JT08X4xWcEiAh/Mo1Pp/bkMBItB9H4RfWZ7EX1m+1wGVLtZFtPyt/lJPonNyGrK+wgt5LkP59LzQRGDHxaBg7rzQXHyTmLzig/to7n0fDQXXFEht5O1Uzzh4++zyfq4kMFdhSD6uJBbu+awd9dc9sStQro/LuCeYu4qcP8kNq/40HYXEthdABEVckt34Ac78lS+u4BDirtnjvs/dPGKD23vHLoeCUOOnSi3r4DQEK7rPwXzig9t/yz0/bMgonznfpu3P5+QyZ3l/m/zvOJDC81C78kHQ479Crcnn5Diyhxu/z/DKz60A3noB/NA1JNn3yFv3iT9jescfOM6J4aRnDZnOzhAWEO4AwfzOGHo2MH8xE+UO5BH7cE8jiluTx4yh6s+JFZu31jaoTz0wzMhoigJ0S9zuOsKxFSUE+UO5xEyuYpvlIdyeXB0Zvxf0j6Qw9jDM3k4HF/mtgbOCR8SKyvX8eujuehHc8GQzch7lwi/dwmeINtHJ0dzCQ3hKr5Z/jM3/sNnZGwstsxtDZRDPtxPyPFc9OM5IDqWYzfyST/hvV9BLEkfawCEpbjHZ9B/PIfOR7pvtuXQfTyHHXFKxkbWbDA7jTnc9ZGbhB1ycgb6qRkQUZSEHL9A+PgFeIJsCTmVQ0hxZQ5J2Mnp3FVtTpXCjLCT6MN68zl63TsD/dPpIOrNsu+Q818QPvcFxJL0sS5KWCbXSEhvNndVm1OlMGXuZPqwenX0+kw2+plsEJ2OkpBrfYSv9cETZEuIsBT3TDb9n02n83Q291XbZ9l0n85iRzySsYojTGHLHGabez7cfw3py0bvywLR51GM3OolfCsMMdVr3yHCUtxo5dnM+F/UZWw0pmpzzUd2El5Dzmain80EQ7Z3Jz/2cvjHU/AE2Q5SPptJaAhX8R+XWTw4MzX+t70y9mwmD4flZ9qfeh3y4f4OOZeJfn4aRBTFSLwnyp3PJGRyMxi4MI0TovNTOXYuI/EvRZzPoEZYJjeDAXM+l3xIrBx9vYgGu5CB/mUGGLLtkGhjRtL2ZQYhxZU5RjImkT5e8aFdzEC/OBUiSrdv9XiDdDGdkMlNQkK84kP7Oh3963QQSRDjTYB1nLAUV+awPu70tVd8aFcm03V5CogupTt3EpuwFFfmcDoBVp5XfGhXp9BydTKIrkzi3pXJdF+bwp5EJAxhKe61Se6fxOYVH9rlyTx/bSJ3rk8CVzSR2/9Kd/8kNq/4iOz8GxNYenMCt29MBCclzG8mkrST2LziI5IUuYtvTKL55iS23ZzIjoQ0iW3fTKApGTvD+lriFR9WX/61HwE/An4E/Aj4EfAj4EfAj4AfAT8CfgT8CPgR8CPgR8CPgB8BtyPwH2KmETvS81kYAAAAAElFTkSuQmCC;" vertex="1" parent="1">
          <mxGeometry x="240" y="760" width="100" height="100" as="geometry" />
        </mxCell>
        <mxCell id="9x1tPgVooMuBBy_g9e1C-33" style="edgeStyle=orthogonalEdgeStyle;rounded=0;orthogonalLoop=1;jettySize=auto;html=1;entryX=0.5;entryY=0;entryDx=0;entryDy=0;" edge="1" parent="1" source="9x1tPgVooMuBBy_g9e1C-23" target="9x1tPgVooMuBBy_g9e1C-11">
          <mxGeometry relative="1" as="geometry" />
        </mxCell>
        <mxCell id="9x1tPgVooMuBBy_g9e1C-23" value="&lt;span style=&quot;font-size: 18px;&quot;&gt;&lt;b&gt;Upload NID&amp;nbsp;&lt;/b&gt;&lt;/span&gt;&lt;div&gt;&lt;span style=&quot;font-size: 18px;&quot;&gt;&lt;b&gt;images (encrypted)&lt;/b&gt;&lt;/span&gt;&lt;/div&gt;" style="text;html=1;align=center;verticalAlign=middle;resizable=0;points=[];autosize=1;strokeColor=none;fillColor=none;" vertex="1" parent="1">
          <mxGeometry x="-225" y="640" width="190" height="60" as="geometry" />
        </mxCell>
        <mxCell id="9x1tPgVooMuBBy_g9e1C-24" value="&lt;span style=&quot;font-size: 18px;&quot;&gt;&lt;b&gt;Face Verification&lt;/b&gt;&lt;/span&gt;" style="text;html=1;align=center;verticalAlign=middle;resizable=0;points=[];autosize=1;strokeColor=none;fillColor=none;" vertex="1" parent="1">
          <mxGeometry y="650" width="170" height="40" as="geometry" />
        </mxCell>
        <mxCell id="9x1tPgVooMuBBy_g9e1C-25" value="&lt;span style=&quot;font-size: 18px;&quot;&gt;&lt;b&gt;Smart Contract&lt;/b&gt;&lt;/span&gt;" style="text;html=1;align=center;verticalAlign=middle;resizable=0;points=[];autosize=1;strokeColor=none;fillColor=none;" vertex="1" parent="1">
          <mxGeometry x="215" y="650" width="150" height="40" as="geometry" />
        </mxCell>
        <mxCell id="9x1tPgVooMuBBy_g9e1C-34" value="&lt;span style=&quot;font-size: 18px;&quot;&gt;&lt;b&gt;Decentralized Storage&lt;/b&gt;&lt;/span&gt;" style="text;html=1;align=center;verticalAlign=middle;resizable=0;points=[];autosize=1;strokeColor=none;fillColor=none;" vertex="1" parent="1">
          <mxGeometry x="-230" y="870" width="210" height="40" as="geometry" />
        </mxCell>
        <mxCell id="9x1tPgVooMuBBy_g9e1C-41" value="&lt;span style=&quot;font-size: 18px;&quot;&gt;&lt;b&gt;Smart Wallet&amp;nbsp;&lt;/b&gt;&lt;/span&gt;&lt;div&gt;&lt;span style=&quot;font-size: 18px;&quot;&gt;&lt;b&gt;Account Abstraction&lt;/b&gt;&lt;/span&gt;&lt;/div&gt;" style="text;html=1;align=center;verticalAlign=middle;resizable=0;points=[];autosize=1;strokeColor=none;fillColor=none;" vertex="1" parent="1">
          <mxGeometry x="380" y="640" width="200" height="60" as="geometry" />
        </mxCell>
        <mxCell id="9x1tPgVooMuBBy_g9e1C-42" value="&lt;span style=&quot;font-size: 18px;&quot;&gt;&lt;b&gt;Govt, Private Blockchain&lt;/b&gt;&lt;/span&gt;" style="text;html=1;align=center;verticalAlign=middle;resizable=0;points=[];autosize=1;strokeColor=none;fillColor=none;" vertex="1" parent="1">
          <mxGeometry x="170" y="840" width="240" height="40" as="geometry" />
        </mxCell>
        <mxCell id="9x1tPgVooMuBBy_g9e1C-43" value="&lt;span style=&quot;font-size: 18px;&quot;&gt;&lt;b&gt;Share e-KYC info&lt;/b&gt;&lt;/span&gt;&lt;div&gt;&lt;span style=&quot;font-size: 18px;&quot;&gt;&lt;b&gt;with org.&lt;/b&gt;&lt;/span&gt;&lt;/div&gt;" style="text;html=1;align=center;verticalAlign=middle;resizable=0;points=[];autosize=1;strokeColor=none;fillColor=none;" vertex="1" parent="1">
          <mxGeometry x="665" y="640" width="170" height="60" as="geometry" />
        </mxCell>
        <mxCell id="9x1tPgVooMuBBy_g9e1C-44" value="&lt;span style=&quot;font-size: 18px;&quot;&gt;&lt;b&gt;Revoke the e-KYC&amp;nbsp;&lt;/b&gt;&lt;/span&gt;&lt;div&gt;&lt;span style=&quot;font-size: 18px;&quot;&gt;&lt;b&gt;details&amp;nbsp;&lt;/b&gt;&lt;/span&gt;&lt;b style=&quot;font-size: 18px; background-color: initial;&quot;&gt;access&amp;nbsp;&lt;/b&gt;&lt;/div&gt;" style="text;html=1;align=center;verticalAlign=middle;resizable=0;points=[];autosize=1;strokeColor=none;fillColor=none;" vertex="1" parent="1">
          <mxGeometry x="660" y="850" width="180" height="60" as="geometry" />
        </mxCell>
        <mxCell id="9x1tPgVooMuBBy_g9e1C-45" value="" style="endArrow=classic;startArrow=classic;html=1;rounded=0;entryX=0;entryY=0.5;entryDx=0;entryDy=0;exitX=1;exitY=0.5;exitDx=0;exitDy=0;" edge="1" parent="1" source="9x1tPgVooMuBBy_g9e1C-10" target="9x1tPgVooMuBBy_g9e1C-12">
          <mxGeometry width="50" height="50" relative="1" as="geometry">
            <mxPoint x="530" y="810" as="sourcePoint" />
            <mxPoint x="580" y="760" as="targetPoint" />
          </mxGeometry>
        </mxCell>
        <mxCell id="9x1tPgVooMuBBy_g9e1C-46" value="" style="endArrow=classic;startArrow=classic;html=1;rounded=0;exitX=1;exitY=0.75;exitDx=0;exitDy=0;" edge="1" parent="1" source="9x1tPgVooMuBBy_g9e1C-10" target="9x1tPgVooMuBBy_g9e1C-13">
          <mxGeometry width="50" height="50" relative="1" as="geometry">
            <mxPoint x="530" y="810" as="sourcePoint" />
            <mxPoint x="580" y="760" as="targetPoint" />
          </mxGeometry>
        </mxCell>
        <mxCell id="9x1tPgVooMuBBy_g9e1C-47" value="" style="endArrow=classic;startArrow=classic;html=1;rounded=0;entryX=0.505;entryY=1.069;entryDx=0;entryDy=0;entryPerimeter=0;" edge="1" parent="1" source="9x1tPgVooMuBBy_g9e1C-22" target="9x1tPgVooMuBBy_g9e1C-25">
          <mxGeometry width="50" height="50" relative="1" as="geometry">
            <mxPoint x="530" y="810" as="sourcePoint" />
            <mxPoint x="580" y="760" as="targetPoint" />
          </mxGeometry>
        </mxCell>
        <mxCell id="9x1tPgVooMuBBy_g9e1C-48" value="" style="endArrow=classic;startArrow=classic;html=1;rounded=0;exitX=1;exitY=0.5;exitDx=0;exitDy=0;entryX=0.55;entryY=1.167;entryDx=0;entryDy=0;entryPerimeter=0;" edge="1" parent="1" source="9x1tPgVooMuBBy_g9e1C-22" target="9x1tPgVooMuBBy_g9e1C-41">
          <mxGeometry width="50" height="50" relative="1" as="geometry">
            <mxPoint x="530" y="810" as="sourcePoint" />
            <mxPoint x="580" y="760" as="targetPoint" />
            <Array as="points">
              <mxPoint x="490" y="810" />
            </Array>
          </mxGeometry>
        </mxCell>
        <mxCell id="9x1tPgVooMuBBy_g9e1C-49" value="" style="shape=image;verticalLabelPosition=bottom;labelBackgroundColor=default;verticalAlign=top;aspect=fixed;imageAspect=0;image=data:image/png,iVBORw0KGgoAAAANSUhEUgAAAGQAAABkCAYAAABw4pVUAAAAAXNSR0IArs4c6QAADT9JREFUeAHtXWtwFVcdD77HR/WL2tHRqjO+Xx/8pFWHDzZ390KxWrFvKlDrB8dWOyrqVAVrbbEPZ+pUB9vcsxsCJbd3zyZAQhIogQTCK0BCICQhEB6FQIDwyoMkkOP8NrmXvXvP7t333kB25s7dxzn/c87/t+f1f21R0fQxzQG3HFi8ePE7iktXf1aQ6XeF0lRMIHSuIKkLBYk+MfFTF2r3SlMxUVLuFIj6GeRxW950Ph0HZiaTHxRIKi5IyjOiRN8UCW0VJTosSpQ5/A0jb1ymSY2WrIqgrStq+pTHAbzJcUn5vijRv4sJpUmUlDGHjHcAlDImyMpWABQjFd8rYmwGr0635D2hpPKLcaIsFiR6ODgA8vaqEyKhz6MutyQIc5PJdwqE3h8jyvYIQTDrUdtEWbnvlph7vrVs2btFic6LS/RgAQKRBRB6bFxWnxRfqX7vzddrGJsBIESiHit0IIz1E2R6VJDVh2+aeUabIyR1vbGhU+06RujmWaX0a1O2txSX1n5AlNQXg10t5Z2ss4YhH16CUVGiL6BtUwqYWaX0y6JE23xggN8M9YUe5kBBTn1jSoAyMVcoAzcrGLp2DWPSL1hQZhLyPlGiZboK+/I2Fjq9WILKBbcSgyhClGhdoTMvwPrV/2BZ8sMF0VviJHm7mFD3BNjYqdLT2mbLyU9GCsqshPK5iEUehQUWUbrBk0hAKS6lHxMl2jXdM7KX3toOnyRvDxUUsaz6tulhKhsI/YspSKl99xD1I6GAgtUUdq36Ckyfc8GpB68CByXqpe3dpRXs6bqtbGVrB9t+vJd1nO1nh85dYAfOnGM1XUfZv5v2sgfLqwtjbiFUChSQuKw8FlVveDi5jqX2d7FLV0dYvmN8fJxtOXqS/WrNxsiBEYj6s0BAgWBNkJTBsAH54fJK9kZrBxu5di0fDjnPr4+Ps4r2bnZPWWWUwAzHSug3fQUFwrQodBgLaR07fP5iDqOd3jjSf5E9mqqJDhRC99+9bM37fQNFIPSlsHvGs/U72ODomFPem6bvHxpmT6ypjw4USVnqCyAxKfVVUaIQO4fWmJe3NDPMA34fAyOjEc4rylicVHzdGygTmr76MMH4Z8OuvGAcv3iZlbUcZH+obWQPlFdpq6pfr61nJc1tDM+sjovDVxmGwjDblC4rLtEGT5pHQaaPpomF8f+XDU3smkXPOH1lkC1t2MXismrKUDx7sbHZcjXW038psoleUwe76SYwSIA+OQwgUMZD5dUMb6/ZseNEL5u7co0pEMZ6PpJcx7rO9ZuRY3WHjtmmZaTt6Zqox8Bbx5iIhC7wVLCDOScuUbb75BlT5lV1HmFI47Q+P16xmrWdPmtKFxtMpzT9SI+RxxEgE3ZTSqcfhduhgSHG7Kg/csJyiMpH/ycr17BjF/jzyqnLAwz7nHw0/H+uHAKPbYMiSOoD/lfC/A2HCIR3QCQCUYnXujxG69jwGH9j+dquNs/03dQvLqk/tQ1I2BaF6zp7cvDAzvwXFet9Y9Z/trfklIEbF4auRjPBJ5QmW4DEZfoFN4h7yYNddN/AYIZh2IO80LDLNzBQt1myyrBj5x2vbm/xtSy7vLBlSywS+qxdgn6mwwoKb/GqfR3sN1WbAmHQMxu38/DQgPKzLQ5oLbHuJdpGUOlxQDAQxgVVPnrJmSs3eqIeHWwsgyrXjC62FZYbxUn/jNArZlbhIO6T3fv1OGTOIdoPorz8NJU7TXtJVMNV/kqbr9Cc5r3vjbVcacDbl65EBAg1H7YmPJf8a7xTZoWVvv3M+UzP0J9EI+NSGrk9ZE5J5YfCluqGBYCxnLK97XocMucvb9kdRS8Z5Rpvw8HSWPGb9fqpqk0ZEPQnNV09UQDC4FGc00smvV0jqRCAl/ccYNuOn2LYVXt5EbCSgj798tURdmVklPuDXoR3jF2/zk2fpnN+aJj9a2sgvSh3HhElJeWFEV7y6mVZkDvNWe5eXPLb6s08Xvt2D+IcL23l5RUStDynh0Tlz3H/qqoc3QWUT7yK27kHMLFiCurAstlOPZykicu0JQsQeJy6dMr3XLmNh4/n8A5Kql+ufss17d+va2D+K4AZg2LLD2GnESyB0KEsr1+EqzAmCuP66fVbc8BI34ABHOYDt/Wo5ggs07Td/EO+9lR1MCIdtHG2nPx0ppcgdojbhrvNB1up3ssDlrxZtnOfa0DuXbGanR0csqTv5CHsu9y21U6+WYmK72QAEWVVtJPJzzT0wKG8/Lg6do0tUGpdM+KvG5rylmEnASTR0D762f5cWmpxBhBE0MlNENyO/cm19QxWhXaOllN9rtS36fY09LxtpxjLNEve2hYwGJTFJfXeDCBh6s9nyyrrPn/BkgHGhy81NrtmCGRXVsYTxrKM11Ahp8EN8j/LBlgLIeHCiMBNBc2krUZG6K+xyYP9lZvykAeAujm8luukvoj3lekhYQEyP1VjqtvOxzAMPU4aaEzbfPJ0viJynsOC0kgnqOssQMIYsmDGs+eUualPDjc4N/620f1YDjXx0Jh9W+HW3rOe5i6nwGUNWWFM6pABeT0gS4JZj9PGptNjGW3ngIHFQg+ru3R5Tv6zJ/WAl72YWO042thhFozmnDRUnxZmpma6EH3ZsBHW5wvnXLfsRcDIIAvd3HNC315P51gs/7G20TXDHlfXs9Fr103rAMuUIMQj+fibtTFE9M58Gdw+/7OFeMSUK3kenLx0xZPF4YqWg9wSsDeKyoekOFHxqcwqC4ItCLjcMt0s348gHjGx8uByxMHN8n2drnsJesDRC5dySoP0wKwtQd6Hq2CWcBHIwLfa70LBtKAOSIQx/LitMwSFeqcguDrgBXJLz0u+mJTam+kd6RMtNq7Pm0NoAIM8vMwlYCAEhjgATFSW8KhHjKir0jhk/oNQ4UIwCD01NnVmP7MhDXsWXh7Qg2j9vztaPe8TIN7H5m9RTUMkPUPXq3JVuFEZOSSa+YZrYe6SdYyJBBiukcNkzKtQnTvBiN+t4+vAwxLqRQ4GoSNcMyCMXQi/HXYF4TADvYfxgITWypcw7HoGVZ7mCJqZOAwnWtx1nyd2Ow0xm/yhG7eTfyqnQZh1Aww3LhGYPorGmcm5vEp4o2iL0zKzdug3oJg8Y2xGnChHnBL1mh4CQ96whb0GvGm90i/c/EqPpTsCYIlq2NrQfcw4jWjXXnbkZkBAFSDtPqBpLvee6mNhqGh5dbEcrtK9ZTZJfV4kyjiPQJD34DXFO9Bz5r3pby8xShAgsPzHph2h90S4D6b5bvkvSnRbkMw3o73HxFcdk75ZHqf3/1S3hWtE19rb51sZduqEFa0lCPqH+LaHHaJ+p4F8yex4pWmPZ4ZBL39ucJhbBCJF+N0eK3pQCup5bnkOp3ZRph1WBIN6xjMtBQdhmb6oxr0eBAsHq9hbiLMSVJuMdBF7LEe6a4lIUVFRXKLzjYTCuMZbDPN/3oH4WW7kTjDobu/je02hnKoO91pINzyJE+WRfPzPeT7xNZxoPHIRvMzMjA76bic+Glgs9A2Ym5TC/SHMEICI6zuzvv5dOQy3cwOhhNy8AX7kUfOYmu480WtpIT9fqdUi/liFe4J4xotOxU07EbbEDu/5aRibISToRjcFe80DrZ5ZDBT9cNZ5tp8l2zrZq9taGCZ+ZX+XFjrWCgjkx7DoxeXBTfsQ7zjvRpCPxI27YqLiK1E5g0LwaLYU1oPi9BwubWEHChAIHcGHbm5w1sMZPvPj5o3wIw9A8dNqBS5pXizq3bYpLtPnPECQnRXyelGiB9xWxms+iDqW723P0oE77RVID5suAOy1Pi7yt/kaJhbwIDppFIGU9Y3HxpFnLZIPHPSKyET5RBnAsJ/9ivt0FYYNsB4A3jn04M9t2snaTp+z9DGBDAzie4hKeHRCvDfPJ/bzyWjfXIpAicVjIDZ88JL63859DMZviNCAlRYCA3hxreaV5eqeTEv4XPTx7txk8j23+PembPU4bbsQ1mdbtQ+6SHS3q7emQHpXoHUntDW0D7qkO5uYSH5UIOFFLg2UgT6+JJF88igNCj6AJRKle6owK/B6EqUbPv9p/kTyP+e1yo+L08MXg230XSWVn4gEBGOhmpEdobWBv4E+Di1+1lWbwMuqbzPyJdJrfH5UJFTys6FTgpZMS7DyjJT5VoXfKh8n1vxpCP25FS8K5lkxSX0pCH+TQukxUMFOuY/dQ5gmSsrSqET3QYAHETqktr4LCsPsSpOhy6f+l6SJsgkC1jB5F1xZ0Dxq6uBodPReegs2et7UrsGx1TPlSefSubGE0u6FSaHkJUq3IKmPuzZI8MytEAkAGHw/oxADN8OiEEZsju2mQuRfoEUhtJ0o00WipBwK5c3nbi6V4yKhz9u2tQ2UI4VCfOLLDIgosUSUlMYgV2dYLaEMWJ9r/hmMzSgUNhRsPbTPvRIqACDEtYUvt5vgBlA7a3kTtFyjVZqKmfr0FSw3CrVicCh6XblDkOm344TepUUxInQBYk3hBxUz7mnPkOZ15Q7PdlCFyovpeoXDgf8DVRloH0oGLGMAAAAASUVORK5CYII=;" vertex="1" parent="1">
          <mxGeometry x="710" y="400" width="80" height="80" as="geometry" />
        </mxCell>
        <mxCell id="9x1tPgVooMuBBy_g9e1C-50" value="&lt;span style=&quot;font-size: 18px;&quot;&gt;&lt;b&gt;Update e-KYC&lt;/b&gt;&lt;/span&gt;" style="text;html=1;align=center;verticalAlign=middle;resizable=0;points=[];autosize=1;strokeColor=none;fillColor=none;" vertex="1" parent="1">
          <mxGeometry x="670" y="490" width="140" height="40" as="geometry" />
        </mxCell>
        <mxCell id="9x1tPgVooMuBBy_g9e1C-51" value="" style="endArrow=classic;startArrow=classic;html=1;rounded=0;entryX=0;entryY=0.75;entryDx=0;entryDy=0;exitX=1;exitY=0.25;exitDx=0;exitDy=0;" edge="1" parent="1" source="9x1tPgVooMuBBy_g9e1C-10" target="9x1tPgVooMuBBy_g9e1C-49">
          <mxGeometry width="50" height="50" relative="1" as="geometry">
            <mxPoint x="470" y="570" as="sourcePoint" />
            <mxPoint x="520" y="520" as="targetPoint" />
          </mxGeometry>
        </mxCell>
      </root>
    </mxGraphModel>
  </diagram>
</mxfile>
